<svg id="Layer_1" data-name="Layer 1" xmlns="http://www.w3.org/2000/svg" viewBox="0 0 540 540"><defs><style>.cls-1{fill:#b3541e;}</style></defs><path class="cls-1" d="M443.66,43.85a154.65,154.65,0,0,0-26,8.51c-4,1.72-7.87,3.61-11.68,5.7a134.89,134.89,0,0,0-16.13,10.41,114.08,114.08,0,0,0-13,11.47h0Q375,81.8,373.3,83.72c-1.71,1.9-3.36,3.86-4.94,5.9-13,16.6-20.45,35.51-23.94,56.13a11.29,11.29,0,0,1-.37,1.55,3,3,0,0,1-.52.77l-.13-.12c-3.53-2.55-5-6.13-5.47-10.3-5.62,15.33-5,30.44-.38,45.51.6,1.92,1.25,3.86,2,5.79a33.13,33.13,0,0,1-2.72-2.13,41.27,41.27,0,0,1-8.39-10.18c-.14,1-.25,1.48-.26,2,0,.7,0,1.42-.05,2.12a161.86,161.86,0,0,1-11.89,56.93,120.34,120.34,0,0,1-14.46,25.27c-10.29,14-23.91,23.72-39,31.77-11,5.87-21.64,12.3-31,20.67Q205.77,338.41,207.78,373a120.93,120.93,0,0,0,5,26.9,6,6,0,0,1,.33,2.47A52.59,52.59,0,0,1,204.44,389c-1.38-3-2.61-6-3.84-9.11l-2.41-6c-4.1,15-6.22,30.11-3.6,45.66-4.24-8-7.56-16.26-8.88-25.92-3,11.79-4.55,22.95-1.48,34.9-7.64-3.57-14.57-7.07-20.89-12.77a66.85,66.85,0,0,0,17.59,20.88c-2.68.79-10.15-.69-18.67-3.06l15.5,10.9a15.63,15.63,0,0,1-2.69,1.51c-10.83,3.86-21.65,7.71-32.53,11.43-5,1.68-10.06,3-15.09,4.51a19.31,19.31,0,0,0-4.58,2,13.41,13.41,0,0,0-3.74,3.32c-2.29,3-4.41,6.14-6.49,9.28s-4,6.3-6,9.44c.25.27.48.56.71.83l4.7-.82c23.15-4.11,46.07-9,67.63-18.5A155.72,155.72,0,0,0,194.46,460c.35,8.7.7,17.35,1,26h.61c1.1-6.28,2.22-12.54,3.33-18.82h.75c3.14,8.7,4.72,18.23,11.64,24.94a25.84,25.84,0,0,0,2.21,1.9c-.36-1-.74-2-1.12-3.05-3.36-8.88-7.5-17.52-7.55-27.41,6.51,5,12.15,11.06,20.43,13.13l.53.12-.41-.25c-2.48-1.55-5.05-2.95-7.36-4.7a15.4,15.4,0,0,1-5.88-7.56,161.1,161.1,0,0,0,18.86,5.74A86.08,86.08,0,0,0,256,472.23c-5.14-2.44-9.79-4.35-14.15-6.8-1.43-.8-2.92-1.58-4.35-2.46a17.26,17.26,0,0,1-7.14-7.35c1,.13,1.48.12,1.95.24a72,72,0,0,0,9.25,2.1c11,1.77,22,1,33-1.22,2.08-.42,4.15-.9,6.18-1.42,2.4-.61,4.75-1.29,7.07-2.05h0c16-5.15,30.66-13.33,44.44-23.32,5.57-4,10.89-8.44,16.2-12.93-12.29,2.49-24.54,5-36.85,4a61.64,61.64,0,0,1-6.55-.89c-1.61-.3-3.22-.67-4.84-1.14-.47-.12-.93-.26-1.4-.4,0-.21,0-.41,0-.62.71-.06,1.43-.1,2.16-.14,1.94-.13,3.86-.23,5.8-.38,1.17-.11,2.35-.21,3.51-.37,1.52-.18,3-.42,4.51-.69,13.17-2.45,25.05-8.12,36.08-15.89a119.26,119.26,0,0,0,23.58-22.29A167.5,167.5,0,0,0,393,349.82c1.8-3.47,3.61-7,5.24-10.61-15.31,12.26-32.11,21-51.53,24l-2.06.29c.84-.37,1.66-.73,2.48-1.12,24.72-11.29,43-27.8,55.51-49.05a146.69,146.69,0,0,0,16.21-41.48c-4.53,5-8.91,10-14.14,13.67a32.19,32.19,0,0,1-11.18,5.16l-.53-.6c1.68-1.71,3.39-3.43,5.08-5.17a87.74,87.74,0,0,0,7-8.11,99.78,99.78,0,0,0,10.14-16.47A75.14,75.14,0,0,0,422.94,217c-.78-6.34-2.45-12.55-3.49-18.85-2.77-16.84-3.56-33.72-1-51.05-1.6,1.26-3.13,2.57-4.7,3.8-3.71,2.93-7.57,5.35-12.67,5.25L400,156.1c.41-.41.81-.81,1.22-1.2,1.9-1.85,3.85-3.65,5.58-5.61a62.18,62.18,0,0,0,8.43-11.88v0a45.25,45.25,0,0,0,5.43-20.69c.07-4.25,2-8.48,3.19-12.72a40.29,40.29,0,0,1,1.63-3.88c-2.9,2.69-5.48,5.08-8.05,7.44h0l-.36.33-.58-.37c.38-.92.72-1.86,1.07-2.78h0c.71-1.89,1.43-3.79,2.32-5.59,4.77-9.73,9.59-19.48,14.54-29.12a82.79,82.79,0,0,1,18.8-24.69c1.79-1.58,3.92-2.83,6.45-4.62C454,41.82,448.77,42.65,443.66,43.85ZM383,144.65c-.11,1.78-.25,3.55-.38,5.34,0,.21,0,.42-.06.63-.13,1.73-.29,3.44-.44,5.17-.13,1.38-.28,2.76-.42,4.13s-.3,2.76-.47,4.13c-.13,1.18-.28,2.37-.44,3.55s-.31,2.44-.47,3.65c-.31,2.22-.63,4.42-1,6.63-.25,1.57-.5,3.15-.77,4.71l-.14.83c0,.22-.06.43-.1.64-.07.41-.15.83-.22,1.25-.13.76-.27,1.52-.41,2.29-.11.59-.21,1.19-.32,1.78-.05.25-.09.48-.14.73-.24,1.34-.51,2.69-.78,4l0,.15c-.31,1.61-.63,3.21-1,4.8-.06.27-.11.54-.17.79l-.06.27-.23,1.06q-1.28,6-2.75,11.93c-.22.95-.46,1.91-.71,2.87-.34,1.4-.71,2.79-1.08,4.2l-.57,2.13c-.39,1.49-.79,3-1.2,4.45-.5,1.78-1,3.57-1.54,5.35-.19.67-.39,1.34-.58,2q-2.31,7.89-4.93,15.69c0,.15-.1.32-.15.49l-.93,2.7c-.48,1.42-1,2.83-1.48,4.25-.16.44-.31.89-.48,1.32-.37,1-.74,2.06-1.13,3.1-.73,2-1.46,3.91-2.23,5.85-.49,1.3-1,2.58-1.53,3.86q-.37,1-.78,1.92c-.81,2-1.66,4-2.5,6-.53,1.19-1.05,2.39-1.58,3.58-.85,1.89-1.72,3.77-2.6,5.66l-.9,1.88-.57,1.19c-.42.85-.83,1.7-1.26,2.55-1.79,3.62-3.58,7.25-5.41,10.85-.47.94-.93,1.86-1.42,2.8s-.89,1.74-1.34,2.6c-.61,1.21-1.24,2.39-1.88,3.58-.16.3-.31.6-.47.89s-.32.6-.49.89q-.46.89-1,1.77h0l-.93,1.66-.17.3c-.29.5-.57,1-.86,1.52l-.58,1a1.64,1.64,0,0,1-.16.29h0l-.29.5c-1.46,2.52-3,5-4.47,7.49-.5.84-1,1.66-1.51,2.49h0c-.5.82-1,1.63-1.54,2.45-.32.52-.65,1-1,1.53-.48.76-1,1.52-1.46,2.26q-4.31,6.66-9,13c-.32.45-.66.89-1,1.34l-.23.31-.53.68c-.72,1-1.47,1.9-2.21,2.85l-1.18,1.5c-.68.84-1.36,1.66-2,2.49-6.93,8.3-13.79,16.67-21.13,24.61l-.36.4-2.64,2.82c-1,1-2,2.08-3,3.1-.8.81-1.59,1.62-2.4,2.42L271.51,396l-1.38,1.37-2.24,2.12c-.66.64-1.33,1.26-2,1.87l-2.53,2.32c-.86.78-1.73,1.55-2.61,2.3s-1.79,1.57-2.71,2.34c-.52.45-1.05.89-1.59,1.34l-.24.2L254,411.66c-.8.65-1.61,1.29-2.42,1.92-.64.53-1.29,1-2,1.53-1.28,1-2.59,2-3.91,2.94-.51.39-1,.77-1.53,1.13q-2.07,1.51-4.17,3-6,4.24-12,8.33-2.5,1.71-5,3.38a3.37,3.37,0,0,1-.35.22l-3.05,2-3.3,2.11c-1.19.76-2.38,1.52-3.59,2.26-.55.36-1.12.71-1.7,1.06-1,.6-1.94,1.19-2.92,1.78s-2,1.22-3.05,1.81q-3.81,2.2-7.74,4.21c-.75.4-1.52.79-2.29,1.17q-3.87,2-7.82,3.74l-3.58,1.61c-1.21.54-2.41,1.06-3.61,1.57q-2.34,1-4.7,2l-2.37,1-1.32.53c-8.25,3.3-16.59,6.36-24.91,9.5l-4.77,1.82a3.7,3.7,0,0,1-.69.2,2.48,2.48,0,0,1-.78.07,1,1,0,0,1-.46-.14l-.06,0-.06,0c-.43-.29-.59-.88-.54-1.76a1.15,1.15,0,0,1,0-.26,4.3,4.3,0,0,1,.37-1.22,3,3,0,0,1,.21-.45,7,7,0,0,1,.43-.73,2.41,2.41,0,0,1,.26-.39,3,3,0,0,1,.23-.3.65.65,0,0,1,.1-.15c.05-.07.12-.14.18-.21s.12-.15.17-.22l.19-.19a5,5,0,0,1,.39-.4h0l.4-.36c.15-.12.28-.24.43-.35l.32-.22a5.82,5.82,0,0,1,.58-.34,2,2,0,0,1,.39-.19l.21-.08.22-.08,5.21-1.47c1.13-.32,2.25-.65,3.38-1l1.82-.56c.44-.12.87-.25,1.3-.4l1.29-.41,1.93-.62.65-.22,1-.34,1.59-.56.82-.29,1.72-.64c1.38-.53,2.75-1.07,4.12-1.62.56-.22,1.11-.44,1.66-.68s1.09-.44,1.64-.68l.79-.31,2.42-1,2-.87.82-.36c.37-.15.74-.32,1.09-.49l1.19-.54c.64-.28,1.28-.59,1.93-.88l.06,0,.69-.31h.06l.06,0,.2-.09,1.26-.6.09,0c1-.49,2.08-1,3.11-1.5l1.54-.76.69-.33,2.21-1.11c.93-.48,1.87-1,2.79-1.45q4.26-2.2,8.41-4.58c.68-.39,1.36-.77,2-1.18l.25-.13.63-.36h0a3.87,3.87,0,0,1,.34-.21l.5-.29c.91-.53,1.81-1.06,2.7-1.61.16-.08.31-.18.47-.28l2.28-1.41,2.27-1.41c.41-.26.84-.51,1.25-.78a4.08,4.08,0,0,0,.44-.28l.35-.21.11-.08.12-.07.9-.59c1.33-.85,2.64-1.72,3.95-2.6l1.92-1.32c.37-.23.73-.49,1.09-.73s.95-.65,1.43-1c.84-.59,1.67-1.18,2.49-1.78s1.35-1,2-1.44,1.34-1,2-1.46l.81-.58c2-1.51,4.07-3.06,6.08-4.63l.5-.41,1.52-1.22c.65-.5,1.28-1,1.92-1.52q2.7-2.18,5.35-4.43c.6-.53,1.23-1.05,1.84-1.58l.67-.56.8-.7.1-.1,1.57-1.38.41-.36c1.57-1.37,3.12-2.78,4.67-4.21l1.69-1.57c.57-.51,1.13-1.05,1.69-1.59.74-.7,1.47-1.39,2.21-2.11s1.46-1.4,2.18-2.12c1.76-1.72,3.5-3.47,5.22-5.23,1-1,2-2.1,3.05-3.17s2-2.14,3-3.22c1.4-1.5,2.78-3,4.13-4.54l2.45-2.76c1.94-2.23,3.86-4.47,5.73-6.74l.88-1.07c.61-.73,1.21-1.48,1.81-2.23s1.37-1.69,2-2.55,1.34-1.71,2-2.57l.4-.5c0-.07.1-.12.14-.19l.61-.8.24-.32c.19-.24.38-.48.55-.72q.91-1.18,1.8-2.37c.73-1,1.44-1.95,2.17-2.93,1.94-2.64,3.83-5.31,5.7-8l1.86-2.7c.65-1,1.29-1.91,1.93-2.89s1.27-1.95,1.89-2.92c.23-.38.48-.76.71-1.15.39-.59.77-1.19,1.14-1.79.62-1,1.22-2,1.84-3l2.45-4.09c.26-.44.52-.89.79-1.33l.32-.57c1.17-2,2.31-4,3.46-6,1.56-2.76,3.1-5.52,4.6-8.31h0q1.2-2.16,2.35-4.35l1.05-2q3.22-6.12,6.18-12.36c4.8-10.14,9.44-20.39,13.29-30.92.63-1.71,1.25-3.44,1.86-5.16.7-2,1.41-4,2.08-6,.22-.6.42-1.2.63-1.82.27-.77.53-1.57.79-2.36q1.78-5.31,3.48-10.67.84-2.61,1.65-5.24c.55-1.74,1.09-3.48,1.62-5.24s1.07-3.5,1.59-5.25c.4-1.33.79-2.67,1.17-4,.14-.49.29-1,.42-1.48.25-.84.48-1.69.71-2.54.33-1.18.65-2.35.95-3.53,1-3.77,2-7.57,2.84-11.37l.3-1.31c.08-.31.16-.63.22-.95.19-.78.37-1.56.54-2.32.21-.95.42-1.9.62-2.83.12-.54.25-1.07.36-1.61,0-.1,0-.2.05-.3.3-1.39.59-2.78.88-4.17s.55-2.73.82-4.1.53-2.72.79-4.09c.3-1.57.59-3.15.88-4.72q1.41-7.89,2.66-15.84c.09-.65.2-1.3.3-1.94s.21-1.29.31-1.94l.27-1.67,0-.26c.1-.57.19-1.15.29-1.72,0-.07,0-.15,0-.21l.32,0a1.64,1.64,0,0,1,.32.05C383,143.18,383.09,143.92,383,144.65Z"/></svg>