<svg id="Layer_1" data-name="Layer 1" xmlns="http://www.w3.org/2000/svg" viewBox="0 0 1080 270"><defs><style>.cls-1{fill:#362222;}.cls-2{fill:#b3541e;}.cls-3{fill:#fff;}</style></defs><rect class="cls-1" width="1080" height="270"/><path class="cls-2" d="M363.46,104a6.22,6.22,0,0,1-1.27,3.55q-1.28,1.83-3,3.86a40.88,40.88,0,0,1-2.94-3.86A6.35,6.35,0,0,1,355,104a4.15,4.15,0,0,1,1.22-3,3.91,3.91,0,0,1,2.94-1.27,4.34,4.34,0,0,1,4.27,4.27Zm-7.62,18.18,6.81-3.76v55.36h-6.81Z"/><path class="cls-3" d="M381.28,89.61v84.21h-6.8V93.47Z"/><path class="cls-3" d="M399.46,89.61v84.21h-6.8V93.47Z"/><path class="cls-3" d="M454.31,118.46v55.36l-6.8-2.54V157a24.5,24.5,0,0,1-2.75,7.92,20.63,20.63,0,0,1-4.57,5.58,18.76,18.76,0,0,1-5.73,3.36,18.44,18.44,0,0,1-6.25,1.11,18.25,18.25,0,0,1-6.71-1.27,16.67,16.67,0,0,1-5.79-3.81,18.81,18.81,0,0,1-4.06-6.29,23.29,23.29,0,0,1-1.52-8.74v-32.6l6.8-3.76v36.36a17.49,17.49,0,0,0,1.22,6.71,15.1,15.1,0,0,0,3.25,5,14.41,14.41,0,0,0,4.68,3.15,13.42,13.42,0,0,0,11.17-.2,14.64,14.64,0,0,0,5.13-4.12,21.84,21.84,0,0,0,3.7-7.11,33.34,33.34,0,0,0,1.43-10.41V122.22Z"/><path class="cls-3" d="M470.36,127.7a9,9,0,0,0,2.29,6.3,22.26,22.26,0,0,0,5.73,4.47,69.17,69.17,0,0,0,7.52,3.6,61.2,61.2,0,0,1,7.52,3.71,21.51,21.51,0,0,1,5.74,4.83,10.63,10.63,0,0,1,2.28,6.95,17.1,17.1,0,0,1-1.67,7.72,16.39,16.39,0,0,1-4.42,5.54,19.19,19.19,0,0,1-6.25,3.3,23.29,23.29,0,0,1-7.16,1.12,24,24,0,0,1-6.2-.81A23.53,23.53,0,0,1,470,172a18.47,18.47,0,0,1-4.72-4,17.64,17.64,0,0,1-3.15-5.54l2.85-1a18.46,18.46,0,0,0,3.09,5.58,20.15,20.15,0,0,0,4.42,4.07,19.4,19.4,0,0,0,5.13,2.43,18.84,18.84,0,0,0,5.44.82,16.2,16.2,0,0,0,5.28-.87,12.32,12.32,0,0,0,4.42-2.59,13.14,13.14,0,0,0,3-4.31,14.61,14.61,0,0,0,1.17-6,7.38,7.38,0,0,0-2.28-5.48,24.58,24.58,0,0,0-5.79-4.07c-2.34-1.22-4.84-2.38-7.52-3.5a56.91,56.91,0,0,1-7.52-3.81,22.1,22.1,0,0,1-5.79-5,10.83,10.83,0,0,1-2.28-7,12.41,12.41,0,0,1,1.32-5.79,13.08,13.08,0,0,1,3.5-4.26,15.15,15.15,0,0,1,5-2.59,19.19,19.19,0,0,1,5.74-.86,18.86,18.86,0,0,1,9.45,2.53,14.78,14.78,0,0,1,6.5,7.72l-3,.92a15.27,15.27,0,0,0-6-7.87,14.81,14.81,0,0,0-7.93-2.49,11.28,11.28,0,0,0-6.95,2.23A7.51,7.51,0,0,0,470.36,127.7Z"/><path class="cls-3" d="M517.29,159.6a17.9,17.9,0,0,0,.76,5.18,15.17,15.17,0,0,0,2.18,4.52,10.32,10.32,0,0,0,3.61,3.14,10.46,10.46,0,0,0,5,1.17v.71a19.43,19.43,0,0,1-8.79-1.77,15,15,0,0,1-5.64-4.88,20.31,20.31,0,0,1-3-7.26,42.13,42.13,0,0,1-.92-9V120H505v-.91h5.48v-8.53l6.81-3.86v12.39h9.14V120h-9.14Z"/><path class="cls-3" d="M542,133.39a24.46,24.46,0,0,1,2.64-5.84,20.46,20.46,0,0,1,4.11-4.83,19.14,19.14,0,0,1,5.28-3.19,15.28,15.28,0,0,1,6.25-1.07l-1.32,3.05a14.75,14.75,0,0,0-8.18,1.72,15.73,15.73,0,0,0-5.23,4.83,19.35,19.35,0,0,0-2.74,6.4A29.14,29.14,0,0,0,542,141v32.81h-6.81v-51.6l6.81-3.76Z"/><path class="cls-3" d="M601,139.08v34.84h-.4l-6.3-6.4V160a20.43,20.43,0,0,1-2.95,6.5,19.61,19.61,0,0,1-4.41,4.57,18.82,18.82,0,0,1-5.29,2.75,18,18,0,0,1-5.63.91,16.85,16.85,0,0,1-5.84-1,14.54,14.54,0,0,1-4.93-2.94,14.78,14.78,0,0,1-3.45-4.77,15.42,15.42,0,0,1-1.32-6.61,14.17,14.17,0,0,1,2.64-8.73,18.94,18.94,0,0,1,7.21-5.74,39.94,39.94,0,0,1,10.71-3.2,81.13,81.13,0,0,1,13.26-1v-6.6a14.78,14.78,0,0,0-1.17-6.14,12.39,12.39,0,0,0-7.62-6.91,16.58,16.58,0,0,0-5.33-.86,18.87,18.87,0,0,0-8.07,1.87,20,20,0,0,0-7,5.44l-1-.92a22.37,22.37,0,0,1,3.81-3.55,24.32,24.32,0,0,1,4.72-2.74,31.41,31.41,0,0,1,5.24-1.78,22.28,22.28,0,0,1,5.33-.66,19.2,19.2,0,0,1,6.65,1.17,15.63,15.63,0,0,1,5.69,3.65,17.56,17.56,0,0,1,4,6.56A29,29,0,0,1,601,139.08Zm-34,19.4a17.77,17.77,0,0,0,1,6.09,13.54,13.54,0,0,0,2.54,4.42,9.74,9.74,0,0,0,3.71,2.64,11.47,11.47,0,0,0,4.37.87,13.72,13.72,0,0,0,5.58-1.27,14.59,14.59,0,0,0,5.08-3.86,20.93,20.93,0,0,0,3.66-6.4,25.24,25.24,0,0,0,1.42-8.79V141.82a60.33,60.33,0,0,0-10.77.71,27.76,27.76,0,0,0-8.68,2.79,15.33,15.33,0,0,0-5.79,5.24A14.33,14.33,0,0,0,567,158.48Z"/><path class="cls-2" d="M635.31,102.92a35.72,35.72,0,0,1,15,3.15,32.15,32.15,0,0,1,10.71,8.07,33.63,33.63,0,0,1,6.45,11.43,41.07,41.07,0,0,1,2.14,13.05,40.58,40.58,0,0,1-2.14,13A33.28,33.28,0,0,1,661.06,163a31.8,31.8,0,0,1-10.76,8,34.37,34.37,0,0,1-15,2.9H612.36v-70.9Zm0,70a23,23,0,0,0,11.89-3,27.23,27.23,0,0,0,8.48-7.83A34.46,34.46,0,0,0,660.76,151a48.9,48.9,0,0,0,0-25.34,35.27,35.27,0,0,0-5.08-11.07,26.4,26.4,0,0,0-8.48-7.82,23.23,23.23,0,0,0-11.89-3h-6.7a40,40,0,0,0-5.13.26,4.74,4.74,0,0,0-2.79,1.16,4.53,4.53,0,0,0-1.17,2.59,31.71,31.71,0,0,0-.25,4.52v52a31.62,31.62,0,0,0,.25,4.52,4.5,4.5,0,0,0,1.17,2.59,4.74,4.74,0,0,0,2.79,1.17,40.3,40.3,0,0,0,5.13.25Z"/><path class="cls-3" d="M725.71,152.89a29.13,29.13,0,0,1-3.65,9.6,26.94,26.94,0,0,1-5.95,6.86,23.94,23.94,0,0,1-7.46,4.11,25.69,25.69,0,0,1-8.23,1.37,23.93,23.93,0,0,1-8.94-1.73,22.32,22.32,0,0,1-7.72-5.12,25.79,25.79,0,0,1-5.43-8.59,32.2,32.2,0,0,1-2.08-12.08,34.38,34.38,0,0,1,2.28-13.21,26.76,26.76,0,0,1,5.89-9A22.61,22.61,0,0,1,692.6,120a27.2,27.2,0,0,1,9.14-1.62,25.63,25.63,0,0,1,7.57,1.11,22.11,22.11,0,0,1,6.45,3.2,16.16,16.16,0,0,1,4.52,5,13.11,13.11,0,0,1,1.67,6.6l-40.73-.1c-.13.75-.27,1.59-.4,2.54a18.19,18.19,0,0,0-.21,2.64,41.78,41.78,0,0,0,1.93,13.51,26.8,26.8,0,0,0,5.08,9.14,19.12,19.12,0,0,0,7.16,5.18,21.78,21.78,0,0,0,8.28,1.63,23.24,23.24,0,0,0,7.16-1.12,24,24,0,0,0,6.55-3.25,24.28,24.28,0,0,0,5.34-5.08,19,19,0,0,0,3.3-6.6ZM714.24,130a8.61,8.61,0,0,0-1.12-4.37,10.41,10.41,0,0,0-3-3.25,13.78,13.78,0,0,0-4.26-2,18.63,18.63,0,0,0-5.18-.71,21.42,21.42,0,0,0-5.59.76,18.86,18.86,0,0,0-5.43,2.44A21.52,21.52,0,0,0,685,127a19.82,19.82,0,0,0-3.45,6l29.25-.11q2.24,0,2.85-.66A3.38,3.38,0,0,0,714.24,130Z"/><path class="cls-3" d="M738.41,127.7a9.07,9.07,0,0,0,2.28,6.3,22.49,22.49,0,0,0,5.74,4.47,69.17,69.17,0,0,0,7.52,3.6,61.2,61.2,0,0,1,7.52,3.71,21.51,21.51,0,0,1,5.74,4.83,10.63,10.63,0,0,1,2.28,6.95,17,17,0,0,1-1.68,7.72,16.24,16.24,0,0,1-4.41,5.54,19.19,19.19,0,0,1-6.25,3.3,23.29,23.29,0,0,1-7.16,1.12,24,24,0,0,1-6.2-.81,23.53,23.53,0,0,1-5.74-2.39,18.3,18.3,0,0,1-4.72-4,17.64,17.64,0,0,1-3.15-5.54l2.85-1a18.46,18.46,0,0,0,3.09,5.58,20.15,20.15,0,0,0,4.42,4.07,19.4,19.4,0,0,0,5.13,2.43,18.79,18.79,0,0,0,5.44.82,16.24,16.24,0,0,0,5.28-.87,12.32,12.32,0,0,0,4.42-2.59,13.14,13.14,0,0,0,3-4.31,14.61,14.61,0,0,0,1.17-6,7.38,7.38,0,0,0-2.28-5.48,24.58,24.58,0,0,0-5.79-4.07c-2.34-1.22-4.85-2.38-7.52-3.5a56.3,56.3,0,0,1-7.52-3.81,22.1,22.1,0,0,1-5.79-5,10.83,10.83,0,0,1-2.28-7,12.41,12.41,0,0,1,1.32-5.79,13.08,13.08,0,0,1,3.5-4.26,15.15,15.15,0,0,1,5-2.59,19.15,19.15,0,0,1,5.74-.86,18.89,18.89,0,0,1,9.45,2.53,14.83,14.83,0,0,1,6.5,7.72l-3.05.92a15.27,15.27,0,0,0-6-7.87,14.81,14.81,0,0,0-7.93-2.49,11.28,11.28,0,0,0-7,2.23A7.51,7.51,0,0,0,738.41,127.7Z"/><path class="cls-3" d="M785.44,104a6.29,6.29,0,0,1-1.27,3.55q-1.27,1.83-3,3.86a40.88,40.88,0,0,1-2.94-3.86A6.35,6.35,0,0,1,777,104a4.15,4.15,0,0,1,1.22-3,3.91,3.91,0,0,1,2.94-1.27,4.34,4.34,0,0,1,4.27,4.27Zm-7.62,18.18,6.8-3.76v55.36h-6.8Z"/><path class="cls-3" d="M819.77,169.35a78.79,78.79,0,0,1,10,.2,25.15,25.15,0,0,1,7.72,1.78,10.72,10.72,0,0,1,4.93,4,12.65,12.65,0,0,1,1.73,7,15.73,15.73,0,0,1-2.29,8.12,20.46,20.46,0,0,1-6.81,6.76,38.5,38.5,0,0,1-11.27,4.62A64.24,64.24,0,0,1,808,203.58v-.92a77.62,77.62,0,0,0,9.24-.66,47.83,47.83,0,0,0,10.36-2.44,25.69,25.69,0,0,0,8.48-4.87,10.14,10.14,0,0,0,3.5-8q0-6.71-4.67-9.25t-15.13-2c-1.56,0-3.1,0-4.62-.05s-3,0-4.42,0A29.14,29.14,0,0,1,806,175a12.79,12.79,0,0,1-3.85-1.21,6.93,6.93,0,0,1-2.65-2.34,6.46,6.46,0,0,1-1-3.61,6.05,6.05,0,0,1,2.59-4.67q2.6-2.13,7.77-2.64a21.1,21.1,0,0,1-6-2.54,19,19,0,0,1-4.88-4.32,19.45,19.45,0,0,1-3.25-6,24.3,24.3,0,0,1-1.17-7.82,22.83,22.83,0,0,1,1.83-9.45,19.26,19.26,0,0,1,4.93-6.75,20.4,20.4,0,0,1,7.16-4,27.43,27.43,0,0,1,8.53-1.32l23.77-1.63-.31,2.84-17.16-.5a22.44,22.44,0,0,1,6.24,2.54,18.58,18.58,0,0,1,5,4.31,20.17,20.17,0,0,1,3.3,6.1,23.9,23.9,0,0,1,1.22,7.87,22.83,22.83,0,0,1-1.83,9.45,19.63,19.63,0,0,1-4.87,6.75,20.48,20.48,0,0,1-7.06,4.06,25.9,25.9,0,0,1-8.48,1.37c-.55,0-1.1,0-1.68,0s-1.13-.08-1.67-.15a25.8,25.8,0,0,0-7.62,1.22c-1.83.68-2.75,1.59-2.75,2.74a2.71,2.71,0,0,0,.82,2,5.8,5.8,0,0,0,2.08,1.32,13.38,13.38,0,0,0,2.94.77,22.72,22.72,0,0,0,3.41.25c1.62,0,3.2,0,4.72-.1S818.82,169.35,819.77,169.35Zm-8.53-49.47q-5.7,1-8.54,4.57a16,16,0,0,0-3.4,8.28,24.3,24.3,0,0,0,1,9.85,30.65,30.65,0,0,0,4.47,9.25,21.58,21.58,0,0,0,7.16,6.45A13.67,13.67,0,0,0,821,159.8a12.79,12.79,0,0,0,10.21-8.33,19.76,19.76,0,0,0,1.16-6.86,28.75,28.75,0,0,0-1-7.46,30.62,30.62,0,0,0-3-7.16,24.5,24.5,0,0,0-4.52-5.84,17.31,17.31,0,0,0-5.79-3.66A12.92,12.92,0,0,0,811.24,119.88Z"/><path class="cls-3" d="M893.2,137.55v36.27h-6.8V137.55a19.86,19.86,0,0,0-1.22-7.26,14.93,14.93,0,0,0-3.25-5.13,13.45,13.45,0,0,0-4.67-3,14.9,14.9,0,0,0-11.18.16,16.11,16.11,0,0,0-5.13,3.4,16.84,16.84,0,0,0-3.7,5.59,19.58,19.58,0,0,0-1.43,7.72v34.84H849v-49l6.8-5.79v12.09a17.53,17.53,0,0,1,3.1-5.49,19.08,19.08,0,0,1,4.52-3.91,21.47,21.47,0,0,1,5.39-2.39,21,21,0,0,1,5.79-.81,20.33,20.33,0,0,1,6.85,1.17,17.42,17.42,0,0,1,5.89,3.5,17.07,17.07,0,0,1,4.17,5.94,20.81,20.81,0,0,1,1.57,8.38Z"/><path class="cls-3" d="M252.2,86.82q13.86.17,24.13,5.05a51.55,51.55,0,0,1,17.19,13,54.07,54.07,0,0,1,10.35,18.34,65.58,65.58,0,0,1,3.43,20.94A64.89,64.89,0,0,1,303.87,165a53.31,53.31,0,0,1-10.35,18.17A50.88,50.88,0,0,1,276.25,196q-10.37,4.8-24.05,4.64H215.37V86.82Zm0,112.3a36.88,36.88,0,0,0,19.07-4.8,43.69,43.69,0,0,0,13.62-12.55A55.63,55.63,0,0,0,293,164a78,78,0,0,0,2.69-20.38A77.07,77.07,0,0,0,293,123.33a56.75,56.75,0,0,0-8.14-17.77A42.54,42.54,0,0,0,271.27,93a37.33,37.33,0,0,0-19.07-4.72H241.45a65.15,65.15,0,0,0-8.23.4,7.66,7.66,0,0,0-4.49,1.88,7.19,7.19,0,0,0-1.87,4.15,51.16,51.16,0,0,0-.41,7.26v83.45a51.06,51.06,0,0,0,.41,7.26,7.19,7.19,0,0,0,1.87,4.15,7.59,7.59,0,0,0,4.49,1.88,65.15,65.15,0,0,0,8.23.4Z"/><path class="cls-3" d="M191.88,199.09V84.76H203V199.09Z"/><path class="cls-2" d="M754.15,184.25a2.56,2.56,0,0,0,.45,1.53,4.47,4.47,0,0,0,1.16,1.13,8.54,8.54,0,0,0,1.65.87c.63.24,1.26.49,1.92.73s1.29.5,1.91.77a8.65,8.65,0,0,1,1.65.93,4.55,4.55,0,0,1,1.17,1.23,3.13,3.13,0,0,1,.44,1.67,5.28,5.28,0,0,1-.52,2.41,5,5,0,0,1-1.39,1.73,6.17,6.17,0,0,1-2,1,7.72,7.72,0,0,1-2.3.35,8.18,8.18,0,0,1-2-.25,7.14,7.14,0,0,1-1.8-.75A6.47,6.47,0,0,1,753,196.4a5.06,5.06,0,0,1-1-1.72l.67-.3a5.73,5.73,0,0,0,1,1.71,6,6,0,0,0,1.42,1.2,6.42,6.42,0,0,0,1.69.7,6.81,6.81,0,0,0,1.78.24,6.57,6.57,0,0,0,1.88-.27,5.22,5.22,0,0,0,1.6-.8,4,4,0,0,0,1.12-1.3,3.74,3.74,0,0,0,.42-1.8,2.18,2.18,0,0,0-.77-1.7,7.68,7.68,0,0,0-1.94-1.22c-.78-.35-1.61-.69-2.5-1a19.19,19.19,0,0,1-2.51-1.1,6.89,6.89,0,0,1-1.94-1.49,3.16,3.16,0,0,1-.77-2.16,4,4,0,0,1,.45-1.93,4.4,4.4,0,0,1,1.18-1.39,5.25,5.25,0,0,1,1.67-.84,6.7,6.7,0,0,1,1.94-.29,7,7,0,0,1,1.58.19,5.55,5.55,0,0,1,1.45.57,5.15,5.15,0,0,1,1.22,1,4.34,4.34,0,0,1,.84,1.39l-.6.3a5.18,5.18,0,0,0-.9-1.4,5.08,5.08,0,0,0-1.18-1,5.67,5.67,0,0,0-1.35-.56,5.74,5.74,0,0,0-1.41-.18,5.12,5.12,0,0,0-1.47.21,4.44,4.44,0,0,0-1.26.59,3.15,3.15,0,0,0-.87.95A2.5,2.5,0,0,0,754.15,184.25Z"/><path class="cls-2" d="M768.6,195.1a4.25,4.25,0,0,0,.19,1.27,3.62,3.62,0,0,0,.53,1.1,2.52,2.52,0,0,0,.88.77,2.6,2.6,0,0,0,1.23.29v.17a4.73,4.73,0,0,1-2.15-.43,3.65,3.65,0,0,1-1.38-1.2,5.05,5.05,0,0,1-.74-1.77,10.29,10.29,0,0,1-.22-2.21v-7.67h-1.35v-.23h1.35v-2.08l1.66-.94v3h2.23v.23H768.6Z"/><path class="cls-2" d="M783.3,185.05v13.53l-1.67-.62v-3.51a5.69,5.69,0,0,1-.67,1.94,5.05,5.05,0,0,1-1.11,1.37,4.9,4.9,0,0,1-1.41.82,4.47,4.47,0,0,1-1.52.27,4.38,4.38,0,0,1-1.64-.31,4.26,4.26,0,0,1-1.42-.93,4.75,4.75,0,0,1-1-1.54,5.64,5.64,0,0,1-.37-2.14v-8l1.66-.91v8.88a4.21,4.21,0,0,0,.3,1.64,3.73,3.73,0,0,0,.79,1.22,3.53,3.53,0,0,0,1.14.77,3.39,3.39,0,0,0,1.32.27,3.45,3.45,0,0,0,1.42-.32,3.58,3.58,0,0,0,1.25-1,5.53,5.53,0,0,0,.91-1.73,8.33,8.33,0,0,0,.34-2.55V186Z"/><path class="cls-2" d="M797.92,178v20.74h-.1l-1.56-1.57v-3.4a7.47,7.47,0,0,1-.89,2.21,6.38,6.38,0,0,1-1.35,1.59,5.39,5.39,0,0,1-3.47,1.29,4.73,4.73,0,0,1-1.88-.39,4.57,4.57,0,0,1-1.61-1.14,5.5,5.5,0,0,1-1.13-1.91,8,8,0,0,1-.42-2.72,8.26,8.26,0,0,1,.62-3.36,7.34,7.34,0,0,1,1.61-2.39,6.61,6.61,0,0,1,2.23-1.42,6.79,6.79,0,0,1,2.46-.47,5.69,5.69,0,0,1,2.11.38,4.45,4.45,0,0,1,1.72,1.18v-7.67Zm-1.66,13.76v-2.29a3.63,3.63,0,0,0-.38-1.67,3.53,3.53,0,0,0-1-1.23,4.72,4.72,0,0,0-1.44-.76,5.57,5.57,0,0,0-1.68-.26,5.79,5.79,0,0,0-1.87.32,4.86,4.86,0,0,0-1.68,1,5.34,5.34,0,0,0-1.2,1.74,6.15,6.15,0,0,0-.46,2.51A9.31,9.31,0,0,0,787,194a6,6,0,0,0,1.09,2,4.48,4.48,0,0,0,1.55,1.19,4.15,4.15,0,0,0,1.77.4,4.42,4.42,0,0,0,1.8-.39,4.58,4.58,0,0,0,1.56-1.13,5.68,5.68,0,0,0,1.1-1.85A6.86,6.86,0,0,0,796.26,191.75Z"/><path class="cls-2" d="M802.56,181.52a1.52,1.52,0,0,1-.31.87c-.21.3-.45.61-.73.94a10.31,10.31,0,0,1-.72-.94,1.57,1.57,0,0,1-.3-.87,1,1,0,0,1,.3-.73,1,1,0,0,1,.72-.31,1.06,1.06,0,0,1,1,1ZM800.7,186l1.66-.91v13.53H800.7Z"/><path class="cls-2" d="M810.93,185.05a6.29,6.29,0,0,1,2.7.55,6,6,0,0,1,2,1.52,6.91,6.91,0,0,1,1.25,2.2,7.84,7.84,0,0,1,.43,2.63,7.75,7.75,0,0,1-.43,2.6,6.91,6.91,0,0,1-1.25,2.2,6,6,0,0,1-2,1.52,6.9,6.9,0,0,1-5.4,0,6,6,0,0,1-2-1.52,6.75,6.75,0,0,1-1.26-2.2,7.75,7.75,0,0,1-.43-2.6,7.84,7.84,0,0,1,.43-2.63,6.75,6.75,0,0,1,1.26-2.2,6,6,0,0,1,2-1.52A6.29,6.29,0,0,1,810.93,185.05ZM806,190.46a9.87,9.87,0,0,0,.49,3.42,7.62,7.62,0,0,0,1.37,2.44,5.64,5.64,0,0,0,1.89,1.45,4.93,4.93,0,0,0,2.08.48,4.13,4.13,0,0,0,1.48-.27,3.44,3.44,0,0,0,1.25-.82,3.79,3.79,0,0,0,.87-1.36,5.48,5.48,0,0,0,.35-1.89,10.34,10.34,0,0,0-.48-3.56,8.25,8.25,0,0,0-1.41-2.6,6.38,6.38,0,0,0-1.93-1.59,4.69,4.69,0,0,0-2.11-.54,3.74,3.74,0,0,0-1.44.29,3.34,3.34,0,0,0-1.22.9,4.51,4.51,0,0,0-.84,1.5A6.49,6.49,0,0,0,806,190.46Z"/><path class="cls-1" d="M218.3,209.69a8.35,8.35,0,0,1-.75-.65,9.64,9.64,0,0,1-1.83-2.52l-.21,1.22h-1.42l-1.6.09-.26-6.48c-.69.34-1.38.66-2.08,1-6,2.62-12.13,4-19.57,5.36l-1.33.23-.88.16-.59-.67-.2-.23-.78-.89.63-1,.54-.87c.38-.6.76-1.22,1.17-1.84.68-1,1.26-1.87,1.9-2.72a5.55,5.55,0,0,1,1.51-1.34,7.47,7.47,0,0,1,1.66-.72l1.46-.42c1-.27,1.87-.54,2.78-.84,2.41-.83,4.85-1.69,7.25-2.54l-2-1.44,1.33-2.82.38.1a21.64,21.64,0,0,1-1.88-2.88l2.44-1.93a16.55,16.55,0,0,0,2.85,2,24.31,24.31,0,0,1,.92-7.52l2.38.14a39.91,39.91,0,0,1,1.17-5.77l1.24-4.53,1.39,3.45a20.89,20.89,0,0,1,7.35-16.31,47,47,0,0,1,9.13-6.08c4.78-2.55,8.14-5.27,10.56-8.57a31.57,31.57,0,0,0,3.92-6.85,44.55,44.55,0,0,0,3.26-15.62l0-.6a3.54,3.54,0,0,1,0-.48c0-.06,0-.14,0-.23l.59-4.44,1,1.68a20.24,20.24,0,0,1,1.18-8.66l2.23.28a35.19,35.19,0,0,1,6.66-14.35c.45-.59.93-1.16,1.47-1.76.21-.23.41-.45.61-.65h0l.44-.46a34.72,34.72,0,0,1,3.89-3.42,38.88,38.88,0,0,1,4.78-3.08c1.09-.6,2.25-1.17,3.45-1.69a45.25,45.25,0,0,1,7.64-2.5c1-.24,2-.43,3.09-.62l1.52-.29L290,80.93l-.69.47a11.77,11.77,0,0,0-1,.73,22,22,0,0,0-5,6.55c-1.32,2.59-2.63,5.23-3.77,7.54l1.29.9c-.08.18-.16.35-.22.5a2.07,2.07,0,0,0-.18.42c-.11.38-.23.75-.35,1.11a7.79,7.79,0,0,0-.5,2.11,14.25,14.25,0,0,1-1.41,6l1.34-1.06-.58,3.93a45.17,45.17,0,0,0,.28,14c.12.71.27,1.42.42,2.16.22,1.06.44,2.14.58,3.26a23,23,0,0,1-2.33,13.21c-.31.62-.64,1.23-1,1.82l2.13,1.11a43.52,43.52,0,0,1-4.78,12.23,35.83,35.83,0,0,1-4.39,5.93l.79-.62,2.43,1.89c-.48,1.05-1,2.06-1.53,3.09a49,49,0,0,1-5.47,8.34,35.68,35.68,0,0,1-7,6.62,31.8,31.8,0,0,1-3.51,2.17l1.51-.3.09,0,1.34,2.76c-1.7,1.44-3.15,2.62-4.7,3.74a47.06,47.06,0,0,1-12,6.48v0l-1.09.36c-.68.22-1.39.42-2.11.61s-1.23.3-1.83.42a30.56,30.56,0,0,1-6.12.66h-.45l.31.15,1.35.62-.58,3c-.48,0-1,0-1.46,0a26.63,26.63,0,0,1-5.93-.69l-.68-.16-.84,2.07-.16,0a9.63,9.63,0,0,1-3.07-1.42c.24.71.52,1.43.81,2.16l.48,1.22.32.9,1.78,5.06Z"/><path class="cls-2" d="M284.51,80.53A43.66,43.66,0,0,0,277.13,83a36.13,36.13,0,0,0-3.31,1.62,38,38,0,0,0-4.59,3,32.92,32.92,0,0,0-3.7,3.26h0c-.35.34-.68.7-1,1.07-.49.54-.95,1.09-1.4,1.67a34.65,34.65,0,0,0-6.81,16,3.13,3.13,0,0,1-.1.44,1.06,1.06,0,0,1-.15.22l0,0a3.89,3.89,0,0,1-1.55-2.92,19.64,19.64,0,0,0-.11,12.93c.17.55.36,1.1.56,1.64a9.29,9.29,0,0,1-.77-.6,11.78,11.78,0,0,1-2.39-2.89,4.73,4.73,0,0,0-.07.55c0,.2,0,.4,0,.6a45.89,45.89,0,0,1-3.37,16.18,34.38,34.38,0,0,1-4.11,7.18,31.64,31.64,0,0,1-11.1,9,44.66,44.66,0,0,0-8.81,5.88A19.34,19.34,0,0,0,217.49,174a34.4,34.4,0,0,0,1.42,7.65,1.78,1.78,0,0,1,.09.7,15.18,15.18,0,0,1-2.46-3.8c-.39-.84-.74-1.7-1.09-2.58-.22-.57-.45-1.14-.68-1.72a29.71,29.71,0,0,0-1,13,21.68,21.68,0,0,1-2.53-7.37,19.31,19.31,0,0,0-.42,9.92,23,23,0,0,1-5.94-3.63,19,19,0,0,0,5,5.93c-.76.23-2.88-.19-5.3-.87l4.4,3.1a4,4,0,0,1-.76.43c-3.08,1.09-6.15,2.19-9.25,3.25-1.4.47-2.85.85-4.28,1.28a5.38,5.38,0,0,0-1.3.56,3.68,3.68,0,0,0-1.07.94c-.65.86-1.25,1.75-1.84,2.64s-1.13,1.79-1.69,2.68l.2.24,1.33-.24c6.58-1.17,13.09-2.55,19.22-5.25,1.42-.62,2.81-1.32,4.19-2.09.1,2.47.2,4.92.29,7.38h.18c.31-1.78.63-3.56.94-5.35h.22c.89,2.47,1.34,5.18,3.31,7.09.19.19.4.36.62.54l-.31-.87c-1-2.52-2.14-5-2.15-7.79,1.85,1.42,3.45,3.15,5.8,3.73l.16,0-.12-.07a24.8,24.8,0,0,1-2.09-1.34,4.33,4.33,0,0,1-1.67-2.15,45.83,45.83,0,0,0,5.36,1.64,24.51,24.51,0,0,0,6.94.61c-1.46-.69-2.78-1.24-4-1.93-.41-.23-.84-.45-1.24-.7a4.88,4.88,0,0,1-2-2.09,5.2,5.2,0,0,1,.55.07,21.1,21.1,0,0,0,2.63.59,25.94,25.94,0,0,0,9.37-.34c.59-.12,1.18-.26,1.76-.41s1.35-.36,2-.58h0a44.87,44.87,0,0,0,12.62-6.63c1.58-1.14,3.1-2.39,4.61-3.67A37.79,37.79,0,0,1,247,187.69a17.45,17.45,0,0,1-1.87-.25c-.45-.09-.91-.19-1.37-.33l-.4-.11v-.18l.61,0c.55,0,1.1-.06,1.65-.11l1-.1c.43,0,.85-.12,1.28-.2a25.84,25.84,0,0,0,10.25-4.51,33.85,33.85,0,0,0,6.7-6.34,47.46,47.46,0,0,0,5.29-8.06c.51-1,1-2,1.49-3A30.89,30.89,0,0,1,257,171.27l-.59.08.71-.32a34.36,34.36,0,0,0,15.77-13.93,41.76,41.76,0,0,0,4.6-11.79,24.82,24.82,0,0,1-4,3.88,9.09,9.09,0,0,1-3.18,1.47l-.15-.17c.47-.49,1-1,1.44-1.47a25.42,25.42,0,0,0,2-2.3,29.11,29.11,0,0,0,2.88-4.68,21.38,21.38,0,0,0,2.18-12.32c-.22-1.8-.69-3.56-1-5.35a46.4,46.4,0,0,1-.28-14.51c-.46.36-.89.73-1.34,1.08a5.58,5.58,0,0,1-3.6,1.5l-.3,0c.11-.12.23-.23.35-.34.53-.53,1.09-1,1.58-1.59a17.83,17.83,0,0,0,2.4-3.38h0a12.86,12.86,0,0,0,1.54-5.87,15.47,15.47,0,0,1,.9-3.62c.1-.33.28-.65.47-1.1l-2.29,2.11h0l-.1.09-.17-.1c.11-.27.21-.53.31-.79h0c.2-.54.4-1.07.65-1.59,1.36-2.76,2.73-5.53,4.14-8.27a23.45,23.45,0,0,1,5.34-7c.51-.45,1.11-.81,1.83-1.32C287.44,80,286,80.19,284.51,80.53Zm-17.22,28.64c0,.5-.07,1-.11,1.51,0,.06,0,.12,0,.18l-.12,1.47-.12,1.18c-.05.39-.09.78-.14,1.17l-.12,1c0,.34-.09.69-.14,1-.08.63-.17,1.25-.27,1.88-.07.44-.14.89-.22,1.34l0,.23,0,.18-.06.36-.12.65-.09.51a1.42,1.42,0,0,1,0,.2c-.07.39-.14.77-.22,1.15v0c-.09.46-.18.92-.28,1.37,0,.07,0,.15,0,.22l0,.08-.07.3q-.36,1.7-.78,3.39c-.06.27-.13.54-.2.81s-.2.8-.31,1.2l-.16.6c-.11.43-.22.85-.34,1.27s-.29,1-.44,1.52c0,.19-.11.38-.16.57-.44,1.49-.91,3-1.4,4.46a1.21,1.21,0,0,1-.05.14c-.08.25-.17.51-.26.76-.14.41-.27.81-.42,1.21,0,.13-.09.25-.14.38-.1.29-.21.58-.32.88-.2.55-.41,1.11-.63,1.66-.14.37-.29.73-.43,1.09-.08.19-.15.37-.23.55-.23.57-.47,1.13-.71,1.7l-.45,1c-.24.54-.48,1.08-.73,1.61l-.26.53c0,.12-.11.23-.16.34l-.36.73c-.51,1-1,2.06-1.54,3.08-.13.27-.26.53-.4.8s-.26.49-.38.74-.35.67-.54,1c0,.09-.09.17-.13.26l-.14.25-.27.5h0l-.27.48,0,.08c-.09.14-.17.29-.25.43l-.16.28a.41.41,0,0,1,0,.09h0l-.08.14c-.42.72-.84,1.43-1.27,2.13l-.43.71h0l-.44.7c-.09.14-.18.29-.28.43l-.41.64c-.82,1.26-1.67,2.5-2.57,3.71l-.28.38-.07.08c0,.07-.1.13-.15.2q-.3.4-.63.81L245,170l-.58.71c-2,2.36-3.92,4.74-6,7l-.11.12-.75.8-.85.88-.68.69-.39.38-.39.39-.64.6-.57.53-.72.66-.74.66-.77.66-.45.38-.07.06-.64.52c-.22.19-.45.37-.68.55l-.56.43c-.36.28-.73.56-1.11.83-.14.12-.29.22-.43.33l-1.19.84c-1.13.81-2.26,1.6-3.41,2.37l-1.43,1-.1.06-.87.57-.94.6-1,.64-.48.3-.83.51-.87.51c-.72.42-1.45.82-2.2,1.2l-.65.33c-.73.37-1.47.73-2.22,1.06l-1,.46-1,.45-1.34.56-.67.27-.37.15c-2.35.94-4.72,1.81-7.08,2.7l-1.36.52-.19.06a1,1,0,0,1-.23,0l-.13,0h0c-.12-.08-.17-.25-.15-.5,0,0,0-.05,0-.07a1,1,0,0,1,.11-.35.38.38,0,0,1,.06-.13,1.13,1.13,0,0,1,.12-.21l.07-.11.06-.08,0,0,.05-.06.05-.07.06,0,.11-.12h0l.11-.1.12-.1.09-.06.17-.1.11,0,.06,0,.06,0,1.48-.41,1-.29.52-.15.37-.12.37-.12.55-.17.18-.06.27-.1.45-.16.24-.08.49-.18,1.17-.46.47-.2.46-.19.23-.09.69-.29.56-.25.24-.1.31-.14.34-.15.54-.25h0l.2-.09h0l.06,0,.35-.17h0l.89-.43.43-.21.2-.1.62-.31.8-.42c.81-.41,1.6-.85,2.39-1.3.19-.11.38-.21.57-.33l.08,0a1,1,0,0,0,.17-.1h0l.1-.06.14-.09c.26-.14.52-.3.77-.45l.13-.08.65-.4.65-.4.35-.23.13-.07.09-.06,0,0,0,0,.26-.16,1.12-.74.54-.38a3.37,3.37,0,0,0,.31-.21l.41-.28.71-.5.57-.41.57-.42.23-.16c.58-.43,1.15-.87,1.72-1.32l.14-.11.44-.35.54-.43c.52-.41,1-.83,1.52-1.26l.53-.45.19-.16.22-.2,0,0c.15-.12.3-.26.45-.39l.12-.1,1.32-1.2.48-.44.48-.46.63-.59.62-.61c.5-.48,1-1,1.48-1.48l.87-.9c.29-.31.58-.61.86-.92s.79-.85,1.17-1.29l.7-.78c.55-.64,1.1-1.27,1.63-1.92l.25-.3.51-.63c.2-.24.39-.48.58-.73l.57-.73.12-.14,0,0,.17-.23.07-.09.16-.21.51-.67.61-.83c.55-.75,1.09-1.51,1.62-2.27.18-.26.35-.52.53-.77s.37-.54.55-.82l.54-.83c.06-.11.13-.22.2-.33s.22-.34.32-.51.35-.56.52-.84l.7-1.16c.08-.13.15-.26.23-.38l.09-.16,1-1.72c.44-.78.88-1.57,1.31-2.36h0c.23-.41.45-.82.67-1.24.09-.19.19-.37.29-.56.61-1.16,1.2-2.33,1.76-3.52,1.36-2.88,2.68-5.79,3.78-8.78l.52-1.47.6-1.69c.06-.17.11-.34.17-.52s.15-.44.23-.67q.51-1.5,1-3c.16-.49.31-1,.47-1.49s.31-1,.45-1.49.31-1,.46-1.49l.33-1.14.12-.42c.07-.24.14-.48.2-.72s.19-.67.27-1c.29-1.07.55-2.15.81-3.23,0-.13.05-.25.08-.38a2.5,2.5,0,0,0,.07-.26l.15-.67.18-.8c0-.15.07-.3.1-.45s0-.06,0-.09c.09-.4.17-.79.25-1.19s.16-.77.23-1.16.16-.77.23-1.16.17-.9.25-1.34c.27-1.5.52-3,.75-4.51l.09-.55.09-.55.07-.47v-.07l.09-.49v-.06h.18C267.29,108.75,267.3,109,267.29,109.17Z"/><circle class="cls-2" cx="197.22" cy="72.64" r="6.47"/></svg>