<svg id="Layer_1" data-name="Layer 1" xmlns="http://www.w3.org/2000/svg" viewBox="0 0 540 540"><defs><style>.cls-1{fill:#fff;}.cls-2{fill:#362222;}.cls-3{fill:#b3541e;}</style></defs><rect class="cls-1" x="-540" y="538.75" width="1080" height="270"/><rect class="cls-2" width="540" height="540"/><path class="cls-3" d="M100.46,341.1a4,4,0,0,1-.82,2.31c-.55.79-1.2,1.63-2,2.51a27.68,27.68,0,0,1-1.92-2.51A4.22,4.22,0,0,1,95,341.1a2.75,2.75,0,0,1,.79-2,2.57,2.57,0,0,1,1.92-.83,2.82,2.82,0,0,1,2.77,2.78Zm-4.95,11.82,4.43-2.44v36H95.51Z"/><path class="cls-1" d="M112.06,331.72v54.76h-4.43V334.23Z"/><path class="cls-1" d="M123.88,331.72v54.76h-4.42V334.23Z"/><path class="cls-1" d="M159.56,350.48v36l-4.43-1.65v-9.31a15.87,15.87,0,0,1-1.78,5.15,13.45,13.45,0,0,1-3,3.63,12,12,0,0,1-3.73,2.18,11.76,11.76,0,0,1-8.42-.1,10.87,10.87,0,0,1-3.77-2.47,12.18,12.18,0,0,1-2.64-4.1,15,15,0,0,1-1-5.68V352.92l4.42-2.44v23.65a11.3,11.3,0,0,0,.8,4.36,9.83,9.83,0,0,0,2.11,3.24,9.35,9.35,0,0,0,3,2,8.72,8.72,0,0,0,7.27-.13,9.46,9.46,0,0,0,3.33-2.67,14.32,14.32,0,0,0,2.42-4.63,22,22,0,0,0,.92-6.77V352.92Z"/><path class="cls-1" d="M170,356.49a5.91,5.91,0,0,0,1.49,4.1,14.39,14.39,0,0,0,3.73,2.9,46.34,46.34,0,0,0,4.89,2.35,39.73,39.73,0,0,1,4.89,2.41,13.74,13.74,0,0,1,3.73,3.14,6.91,6.91,0,0,1,1.49,4.52,11,11,0,0,1-1.09,5,10.59,10.59,0,0,1-2.87,3.61,12.67,12.67,0,0,1-4.07,2.14,15.06,15.06,0,0,1-4.65.73,15.64,15.64,0,0,1-4-.53,15,15,0,0,1-3.74-1.55,11.85,11.85,0,0,1-3.07-2.58,11.37,11.37,0,0,1-2.05-3.6l1.85-.66a12.1,12.1,0,0,0,2,3.63,13,13,0,0,0,2.87,2.65,12.59,12.59,0,0,0,3.34,1.58,12.18,12.18,0,0,0,3.53.53,10.74,10.74,0,0,0,3.44-.56,8,8,0,0,0,2.87-1.69,8.24,8.24,0,0,0,2-2.8,9.47,9.47,0,0,0,.76-3.93,4.8,4.8,0,0,0-1.48-3.57,15.68,15.68,0,0,0-3.77-2.64q-2.28-1.2-4.89-2.28a37.3,37.3,0,0,1-4.89-2.48,14.42,14.42,0,0,1-3.76-3.24,7,7,0,0,1-1.49-4.56,8,8,0,0,1,.86-3.76,8.45,8.45,0,0,1,2.28-2.78,9.7,9.7,0,0,1,3.24-1.68,12.41,12.41,0,0,1,9.87,1.09,9.54,9.54,0,0,1,4.23,5l-2,.59a9.92,9.92,0,0,0-3.9-5.12,9.61,9.61,0,0,0-5.15-1.62,7.37,7.37,0,0,0-4.53,1.46A4.87,4.87,0,0,0,170,356.49Z"/><path class="cls-1" d="M200.52,377.23a11.64,11.64,0,0,0,.49,3.37,9.91,9.91,0,0,0,1.42,2.94,6.69,6.69,0,0,0,5.62,2.81v.46a12.61,12.61,0,0,1-5.72-1.15,9.64,9.64,0,0,1-3.66-3.17,13.08,13.08,0,0,1-2-4.73,27.1,27.1,0,0,1-.6-5.88V351.47h-3.57v-.6h3.57v-5.54l4.43-2.51v8.05h5.94v.6h-5.94Z"/><path class="cls-1" d="M216.57,360.19a16,16,0,0,1,1.72-3.8,13.34,13.34,0,0,1,2.67-3.14,12.59,12.59,0,0,1,3.44-2.08,9.92,9.92,0,0,1,4.06-.69l-.86,2a9.65,9.65,0,0,0-5.32,1.12,10.3,10.3,0,0,0-3.4,3.14,12.45,12.45,0,0,0-1.78,4.16,19.07,19.07,0,0,0-.53,4.26v21.34h-4.43V352.92l4.43-2.44Z"/><path class="cls-1" d="M255,363.89v22.66h-.26l-4.1-4.16V377.5a13.46,13.46,0,0,1-1.91,4.23,12.74,12.74,0,0,1-2.88,3,12.07,12.07,0,0,1-3.43,1.78,11.66,11.66,0,0,1-3.67.6,11,11,0,0,1-3.8-.66,9.52,9.52,0,0,1-3.2-1.92,9.39,9.39,0,0,1-2.25-3.1,10.19,10.19,0,0,1-.86-4.3,9.3,9.3,0,0,1,1.72-5.68,12.4,12.4,0,0,1,4.69-3.73,25.87,25.87,0,0,1,7-2.08,53,53,0,0,1,8.62-.66v-4.3a9.57,9.57,0,0,0-.76-4,8.22,8.22,0,0,0-2-2.81,8.41,8.41,0,0,0-2.94-1.69,11,11,0,0,0-3.47-.56,12.35,12.35,0,0,0-5.25,1.22,13.11,13.11,0,0,0-4.53,3.54l-.66-.6a15.27,15.27,0,0,1,2.48-2.31,15.86,15.86,0,0,1,3.07-1.78,20.66,20.66,0,0,1,3.4-1.16,14.91,14.91,0,0,1,3.47-.43,12.69,12.69,0,0,1,4.33.76,10.09,10.09,0,0,1,3.7,2.38,11.45,11.45,0,0,1,2.58,4.26A19.12,19.12,0,0,1,255,363.89Zm-22.13,12.62a11.43,11.43,0,0,0,.63,4,8.92,8.92,0,0,0,1.65,2.88,6.34,6.34,0,0,0,2.41,1.71,7.41,7.41,0,0,0,2.84.56,8.92,8.92,0,0,0,3.64-.82,9.49,9.49,0,0,0,3.3-2.51,13.58,13.58,0,0,0,2.38-4.16,16.46,16.46,0,0,0,.92-5.72v-6.74a38.86,38.86,0,0,0-7,.47,18,18,0,0,0-5.65,1.81,9.93,9.93,0,0,0-3.76,3.4A9.34,9.34,0,0,0,232.82,376.51Z"/><path class="cls-3" d="M277.28,340.37a23.26,23.26,0,0,1,9.78,2.05,20.79,20.79,0,0,1,7,5.25,22.11,22.11,0,0,1,4.2,7.43,26.86,26.86,0,0,1,1.38,8.49,26.49,26.49,0,0,1-1.38,8.46,21.7,21.7,0,0,1-4.2,7.36,20.66,20.66,0,0,1-7,5.19,22.2,22.2,0,0,1-9.75,1.88H262.35V340.37Zm0,45.52a14.92,14.92,0,0,0,7.73-1.95,17.66,17.66,0,0,0,5.52-5.09,22.41,22.41,0,0,0,3.3-7.2,31.6,31.6,0,0,0,1.09-8.26,31.24,31.24,0,0,0-1.09-8.22,22.81,22.81,0,0,0-3.3-7.2,17.2,17.2,0,0,0-5.52-5.09,15.1,15.1,0,0,0-7.73-1.91h-4.36a26.27,26.27,0,0,0-3.33.16,3.07,3.07,0,0,0-1.82.76,2.92,2.92,0,0,0-.76,1.68,20.54,20.54,0,0,0-.17,2.94v33.83a20.54,20.54,0,0,0,.17,2.94,2.86,2.86,0,0,0,.76,1.68,3.07,3.07,0,0,0,1.82.76,25.94,25.94,0,0,0,3.33.17Z"/><path class="cls-1" d="M336.08,372.87a19,19,0,0,1-2.38,6.25,17.53,17.53,0,0,1-3.86,4.46,15.64,15.64,0,0,1-4.86,2.67,16.45,16.45,0,0,1-5.35.89,15.63,15.63,0,0,1-5.81-1.12,14.3,14.3,0,0,1-5-3.34,16.48,16.48,0,0,1-3.54-5.58,21,21,0,0,1-1.35-7.86,22.32,22.32,0,0,1,1.48-8.59,17.16,17.16,0,0,1,3.84-5.84,14.46,14.46,0,0,1,5.31-3.34,17.84,17.84,0,0,1,5.95-1.06,16.32,16.32,0,0,1,4.92.73,14.22,14.22,0,0,1,4.2,2.08,10.41,10.41,0,0,1,2.94,3.27,8.6,8.6,0,0,1,1.09,4.29l-26.5-.06c-.08.48-.17,1-.26,1.65a12,12,0,0,0-.13,1.72,27.23,27.23,0,0,0,1.25,8.78,17.36,17.36,0,0,0,3.31,5.95,12.33,12.33,0,0,0,4.65,3.37,14.34,14.34,0,0,0,5.39,1.06,15.43,15.43,0,0,0,4.66-.73,15.83,15.83,0,0,0,4.26-2.11,16.26,16.26,0,0,0,3.47-3.31,12.27,12.27,0,0,0,2.14-4.29ZM328.62,358a5.61,5.61,0,0,0-.73-2.84,6.82,6.82,0,0,0-1.92-2.12,9.11,9.11,0,0,0-2.77-1.32,12.3,12.3,0,0,0-3.37-.46,14.11,14.11,0,0,0-3.64.5,12.51,12.51,0,0,0-3.53,1.58,14.23,14.23,0,0,0-3.07,2.71,12.72,12.72,0,0,0-2.25,3.93l19-.06a2.71,2.71,0,0,0,1.85-.43A2.23,2.23,0,0,0,328.62,358Z"/><path class="cls-1" d="M344.34,356.49a5.9,5.9,0,0,0,1.48,4.1,14.44,14.44,0,0,0,3.74,2.9,44.52,44.52,0,0,0,4.89,2.35,39.73,39.73,0,0,1,4.89,2.41,13.89,13.89,0,0,1,3.73,3.14,6.91,6.91,0,0,1,1.48,4.52,11,11,0,0,1-1.09,5,10.47,10.47,0,0,1-2.87,3.61,12.62,12.62,0,0,1-4.06,2.14,15.08,15.08,0,0,1-4.66.73,15.64,15.64,0,0,1-4-.53,14.92,14.92,0,0,1-3.73-1.55,11.89,11.89,0,0,1-3.08-2.58,11.16,11.16,0,0,1-2-3.6l1.85-.66a11.86,11.86,0,0,0,2,3.63,13.06,13.06,0,0,0,2.88,2.65,12.38,12.38,0,0,0,6.87,2.11,10.68,10.68,0,0,0,3.43-.56,8.15,8.15,0,0,0,2.88-1.69,8.52,8.52,0,0,0,2-2.8,9.63,9.63,0,0,0,.76-3.93,4.81,4.81,0,0,0-1.49-3.57,15.81,15.81,0,0,0-3.76-2.64q-2.28-1.2-4.89-2.28a37.3,37.3,0,0,1-4.89-2.48,14.47,14.47,0,0,1-3.77-3.24,7,7,0,0,1-1.48-4.56,8,8,0,0,1,.85-3.76,8.71,8.71,0,0,1,2.28-2.78,9.8,9.8,0,0,1,3.24-1.68,12.44,12.44,0,0,1,9.88,1.09,9.63,9.63,0,0,1,4.23,5l-2,.59a10,10,0,0,0-3.89-5.12,9.64,9.64,0,0,0-5.16-1.62,7.34,7.34,0,0,0-4.52,1.46A4.87,4.87,0,0,0,344.34,356.49Z"/><path class="cls-1" d="M374.93,341.1a4.06,4.06,0,0,1-.83,2.31c-.55.79-1.2,1.63-2,2.51a25.76,25.76,0,0,1-1.91-2.51,4.16,4.16,0,0,1-.8-2.31,2.72,2.72,0,0,1,.8-2,2.54,2.54,0,0,1,1.91-.83,2.84,2.84,0,0,1,2.78,2.78Zm-5,11.82,4.43-2.44v36H370Z"/><path class="cls-1" d="M397.26,383.58a50.6,50.6,0,0,1,6.5.13,16.42,16.42,0,0,1,5,1.16,7,7,0,0,1,3.21,2.6,8.23,8.23,0,0,1,1.12,4.56,10.17,10.17,0,0,1-1.49,5.29,13.33,13.33,0,0,1-4.42,4.39,25,25,0,0,1-7.34,3,41.64,41.64,0,0,1-10.27,1.12v-.59a51.79,51.79,0,0,0,6-.43,31.53,31.53,0,0,0,6.74-1.59,16.75,16.75,0,0,0,5.52-3.17,6.6,6.6,0,0,0,2.28-5.19c0-2.9-1-4.91-3-6s-5.31-1.54-9.84-1.32c-1,0-2,0-3,0s-1.95,0-2.87,0a18.55,18.55,0,0,1-3.08-.23,8.5,8.5,0,0,1-2.51-.79,4.35,4.35,0,0,1-1.71-1.52,4.17,4.17,0,0,1-.63-2.34,3.94,3.94,0,0,1,1.68-3,9.29,9.29,0,0,1,5.06-1.72,13.65,13.65,0,0,1-3.93-1.65,12.53,12.53,0,0,1-3.18-2.81,12.76,12.76,0,0,1-2.11-3.93,15.74,15.74,0,0,1-.76-5.09,14.88,14.88,0,0,1,1.19-6.14,12.6,12.6,0,0,1,3.2-4.4,13.41,13.41,0,0,1,4.66-2.6,17.61,17.61,0,0,1,5.55-.86l15.46-1.06-.2,1.85-11.16-.33a14.56,14.56,0,0,1,4.06,1.65,12,12,0,0,1,3.24,2.81,13,13,0,0,1,2.14,4,15.5,15.5,0,0,1,.8,5.12A14.9,14.9,0,0,1,408,370.5a12.75,12.75,0,0,1-3.17,4.39,13.35,13.35,0,0,1-4.59,2.64,16.85,16.85,0,0,1-5.52.89l-1.09,0c-.38,0-.74-.05-1.09-.1a16.9,16.9,0,0,0-5,.79c-1.19.45-1.78,1-1.78,1.79a1.79,1.79,0,0,0,.53,1.32,4,4,0,0,0,1.35.86,8.66,8.66,0,0,0,1.92.49,14.75,14.75,0,0,0,2.21.17c1.06,0,2.08,0,3.07-.07S396.64,383.58,397.26,383.58Zm-5.55-32.18a8.71,8.71,0,0,0-5.55,3,10.3,10.3,0,0,0-2.22,5.38,15.88,15.88,0,0,0,.63,6.41,20,20,0,0,0,2.91,6,14.14,14.14,0,0,0,4.66,4.2,8.87,8.87,0,0,0,5.91,1,8.31,8.31,0,0,0,6.64-5.42,12.89,12.89,0,0,0,.76-4.46,18.58,18.58,0,0,0-.66-4.86,19.84,19.84,0,0,0-1.92-4.65,16.16,16.16,0,0,0-2.94-3.8,11.36,11.36,0,0,0-3.76-2.38A8.46,8.46,0,0,0,391.71,351.4Z"/><path class="cls-1" d="M445,362.9v23.58h-4.43V362.9a12.88,12.88,0,0,0-.79-4.73,9.65,9.65,0,0,0-2.11-3.33,8.78,8.78,0,0,0-3-2,9.67,9.67,0,0,0-7.27.1,10.29,10.29,0,0,0-3.34,2.21,11.13,11.13,0,0,0-2.41,3.63,12.73,12.73,0,0,0-.92,5v22.66h-4.43V354.64l4.43-3.77v7.87a11.11,11.11,0,0,1,2-3.57,12.45,12.45,0,0,1,2.94-2.54,13.7,13.7,0,0,1,7.27-2.09,13.44,13.44,0,0,1,4.46.76,11.37,11.37,0,0,1,3.83,2.28,11.22,11.22,0,0,1,2.71,3.87,13.55,13.55,0,0,1,1,5.45Z"/><path class="cls-1" d="M301.26,162.56q19,.23,33.17,6.95a70.7,70.7,0,0,1,23.65,17.82,74.52,74.52,0,0,1,14.24,25.22,90.47,90.47,0,0,1,4.71,28.8,89.5,89.5,0,0,1-4.71,28.7,73.49,73.49,0,0,1-14.24,25,69.77,69.77,0,0,1-23.76,17.6q-14.24,6.62-33.06,6.39H250.59V162.56Zm0,154.45q15,0,26.22-6.61a59.86,59.86,0,0,0,18.72-17.26,76.12,76.12,0,0,0,11.21-24.44,107.49,107.49,0,0,0,3.7-28,106.27,106.27,0,0,0-3.7-27.91,77.58,77.58,0,0,0-11.21-24.43,58,58,0,0,0-18.72-17.26q-11.21-6.51-26.22-6.5h-14.8a87.86,87.86,0,0,0-11.32.56,10.43,10.43,0,0,0-6.16,2.57,9.9,9.9,0,0,0-2.58,5.72,69,69,0,0,0-.56,10V298.18a69,69,0,0,0,.56,10,9.87,9.87,0,0,0,2.58,5.71,10.37,10.37,0,0,0,6.16,2.58,87.86,87.86,0,0,0,11.32.56Z"/><path class="cls-1" d="M218.28,317V159.73H233.6V317Z"/><path class="cls-3" d="M354.58,393.27a1.61,1.61,0,0,0,.29,1,2.83,2.83,0,0,0,.76.74,5.66,5.66,0,0,0,1.07.56c.4.17.82.32,1.24.48s.84.32,1.25.5a5.76,5.76,0,0,1,1.07.61,2.75,2.75,0,0,1,.76.8,2,2,0,0,1,.29,1.09,3.38,3.38,0,0,1-.34,1.56,3.32,3.32,0,0,1-.9,1.12,3.91,3.91,0,0,1-1.3.67,4.71,4.71,0,0,1-1.5.23,5,5,0,0,1-1.27-.16,4.33,4.33,0,0,1-1.17-.49,4.1,4.1,0,0,1-1-.79,3.27,3.27,0,0,1-.66-1.13l.44-.19a3.57,3.57,0,0,0,.65,1.11,3.44,3.44,0,0,0,.92.78,4.35,4.35,0,0,0,1.09.46,4.69,4.69,0,0,0,1.17.15,4.19,4.19,0,0,0,1.22-.18,3.26,3.26,0,0,0,1-.51,2.57,2.57,0,0,0,.72-.85,2.36,2.36,0,0,0,.28-1.17,1.45,1.45,0,0,0-.5-1.11,5.44,5.44,0,0,0-1.26-.79c-.51-.23-1.05-.45-1.63-.66a12.15,12.15,0,0,1-1.63-.72,4.31,4.31,0,0,1-1.26-1,2,2,0,0,1-.5-1.4,2.51,2.51,0,0,1,.29-1.25,2.8,2.8,0,0,1,.76-.91,3.61,3.61,0,0,1,1.09-.55,4.49,4.49,0,0,1,2.29-.06,3.35,3.35,0,0,1,.94.37,3.22,3.22,0,0,1,.79.64,2.76,2.76,0,0,1,.55.9l-.38.2a3.83,3.83,0,0,0-.59-.92,3.23,3.23,0,0,0-.77-.62,3.54,3.54,0,0,0-.88-.36,3.61,3.61,0,0,0-.91-.12,3.32,3.32,0,0,0-1,.13,3.27,3.27,0,0,0-.82.39,1.84,1.84,0,0,0-.56.62A1.58,1.58,0,0,0,354.58,393.27Z"/><path class="cls-3" d="M364,400.33a2.56,2.56,0,0,0,.13.82,2.39,2.39,0,0,0,.34.72,1.56,1.56,0,0,0,.58.5,1.69,1.69,0,0,0,.8.19v.11a3.2,3.2,0,0,1-1.4-.28,2.43,2.43,0,0,1-.9-.78,3.22,3.22,0,0,1-.48-1.15,6.5,6.5,0,0,1-.15-1.44v-5H362v-.15h.87v-1.35l1.08-.62v2h1.46V394H364Z"/><path class="cls-3" d="M373.53,393.79v8.8l-1.08-.41v-2.27a3.9,3.9,0,0,1-.43,1.26,3.59,3.59,0,0,1-.73.89,3.1,3.1,0,0,1-.91.53,2.89,2.89,0,0,1-1,.18,2.78,2.78,0,0,1-1.06-.21,2.53,2.53,0,0,1-.92-.6,2.94,2.94,0,0,1-.65-1,3.71,3.71,0,0,1-.24-1.39v-5.18l1.08-.6v5.78a2.71,2.71,0,0,0,.2,1.06,2.34,2.34,0,0,0,.51.8,2.48,2.48,0,0,0,.74.5,2.35,2.35,0,0,0,.86.17,2.17,2.17,0,0,0,.92-.21,2.36,2.36,0,0,0,.82-.65,3.75,3.75,0,0,0,.59-1.13,5.38,5.38,0,0,0,.22-1.66v-4.06Z"/><path class="cls-3" d="M383,389.2v13.49H383l-1-1v-2.21a5,5,0,0,1-.57,1.43,4.29,4.29,0,0,1-.88,1,3.52,3.52,0,0,1-1.09.63,3.44,3.44,0,0,1-1.17.21,3.21,3.21,0,0,1-1.22-.25,3.17,3.17,0,0,1-1-.75,3.51,3.51,0,0,1-.73-1.24,5,5,0,0,1-.28-1.77,5.63,5.63,0,0,1,.4-2.19,4.82,4.82,0,0,1,1.05-1.55,4.43,4.43,0,0,1,1.46-.93,4.57,4.57,0,0,1,1.6-.3,3.7,3.7,0,0,1,1.37.25,2.85,2.85,0,0,1,1.11.77v-5ZM382,398.15v-1.49a2.33,2.33,0,0,0-.89-1.89,3.12,3.12,0,0,0-.94-.49,3.6,3.6,0,0,0-1.09-.17,3.68,3.68,0,0,0-1.22.21,3.07,3.07,0,0,0-1.09.66,3.45,3.45,0,0,0-.78,1.13,4.05,4.05,0,0,0-.3,1.63,5.9,5.9,0,0,0,.27,1.89,3.74,3.74,0,0,0,.71,1.33,2.87,2.87,0,0,0,1,.77,2.71,2.71,0,0,0,1.14.26,2.83,2.83,0,0,0,1.17-.25,3.14,3.14,0,0,0,1-.73,3.7,3.7,0,0,0,.72-1.21A4.68,4.68,0,0,0,382,398.15Z"/><path class="cls-3" d="M386.06,391.49a.94.94,0,0,1-.2.57,7.2,7.2,0,0,1-.47.61,5.59,5.59,0,0,1-.47-.61,1,1,0,0,1-.2-.57.65.65,0,0,1,.2-.47.6.6,0,0,1,.47-.2.68.68,0,0,1,.67.67Zm-1.21,2.9,1.09-.6v8.8h-1.09Z"/><path class="cls-3" d="M391.51,393.79a4.16,4.16,0,0,1,1.76.36,3.75,3.75,0,0,1,1.3,1,4.31,4.31,0,0,1,.82,1.43,5.3,5.3,0,0,1,0,3.4,4.31,4.31,0,0,1-.82,1.43,3.88,3.88,0,0,1-1.3,1,4.48,4.48,0,0,1-3.52,0,4,4,0,0,1-1.3-1,4.47,4.47,0,0,1-.81-1.43,5.3,5.3,0,0,1,0-3.4,4.47,4.47,0,0,1,.81-1.43,3.85,3.85,0,0,1,1.3-1A4.13,4.13,0,0,1,391.51,393.79Zm-3.19,3.52a6.35,6.35,0,0,0,.33,2.23,4.72,4.72,0,0,0,.89,1.58,3.61,3.61,0,0,0,1.22.94,3.25,3.25,0,0,0,1.36.32,2.64,2.64,0,0,0,1-.18,2.46,2.46,0,0,0,.82-.53,2.65,2.65,0,0,0,.56-.89,3.55,3.55,0,0,0,.23-1.23,6.62,6.62,0,0,0-.32-2.31,5.13,5.13,0,0,0-.91-1.69,4.21,4.21,0,0,0-1.26-1,3.06,3.06,0,0,0-1.37-.35,2.25,2.25,0,0,0-1.73.77,3,3,0,0,0-.55,1A4.71,4.71,0,0,0,388.32,397.31Z"/><path class="cls-2" d="M254.63,331.54a12,12,0,0,1-1-.89,13.09,13.09,0,0,1-2.51-3.47l-.29,1.68h-1.95l-2.21.12-.35-8.92c-.95.47-1.9.92-2.86,1.33-8.2,3.61-16.69,5.56-26.92,7.38l-1.83.32-1.21.22-.81-.93-.27-.32-1.08-1.22.87-1.38.75-1.2c.51-.83,1.05-1.68,1.6-2.53.94-1.4,1.74-2.57,2.62-3.74a7.47,7.47,0,0,1,2.07-1.84,9.64,9.64,0,0,1,2.29-1l2-.58c1.33-.38,2.58-.74,3.82-1.16,3.32-1.14,6.68-2.32,10-3.49l-2.83-2,1.84-3.87.53.14a28.79,28.79,0,0,1-2.6-4l3.37-2.66a22.29,22.29,0,0,0,3.92,2.77A33.3,33.3,0,0,1,242.78,290l3.28.19a56.37,56.37,0,0,1,1.61-7.93l1.7-6.23,1.91,4.74a28.72,28.72,0,0,1,10.12-22.42A64.28,64.28,0,0,1,274,250c6.58-3.5,11.19-7.24,14.53-11.78a44.66,44.66,0,0,0,5.39-9.42,61.29,61.29,0,0,0,4.48-21.49l0-.82a6.57,6.57,0,0,1,.07-.67c0-.08,0-.19.05-.31l.81-6.1,1.41,2.3a27.38,27.38,0,0,1,1.62-11.9l3.06.37a48.39,48.39,0,0,1,9.16-19.73c.62-.8,1.28-1.6,2-2.42l.83-.9h0l.62-.64a48.49,48.49,0,0,1,5.34-4.7,55.68,55.68,0,0,1,6.57-4.24c1.51-.83,3.11-1.61,4.75-2.32a61.87,61.87,0,0,1,10.51-3.44c1.4-.33,2.79-.59,4.25-.86l2.09-.39,1.67,3.91q-.49.36-1,.66a14.31,14.31,0,0,0-1.38,1,30.16,30.16,0,0,0-6.85,9c-1.82,3.56-3.62,7.19-5.18,10.37l1.76,1.23c-.1.26-.21.48-.3.69a6.26,6.26,0,0,0-.25.58c-.14.52-.31,1-.47,1.53a10.36,10.36,0,0,0-.69,2.89,19.68,19.68,0,0,1-1.95,8.21l1.86-1.45-.8,5.4a61.87,61.87,0,0,0,.38,19.27c.16,1,.37,1.95.58,3,.3,1.45.61,2.94.8,4.48a31.55,31.55,0,0,1-3.22,18.17c-.42.85-.87,1.69-1.33,2.5l2.93,1.53a60.16,60.16,0,0,1-6.58,16.82,48.74,48.74,0,0,1-6,8.15l1.09-.85,3.34,2.59c-.66,1.46-1.37,2.84-2.1,4.26a67.72,67.72,0,0,1-7.52,11.46,49.14,49.14,0,0,1-9.65,9.12,45.71,45.71,0,0,1-4.83,3l2.08-.42.13,0,1.83,3.79c-2.34,2-4.33,3.61-6.45,5.15A65.37,65.37,0,0,1,287,315.45h0l-1.5.5c-.94.3-1.91.58-2.9.84-.84.21-1.69.41-2.52.58a42.45,42.45,0,0,1-8.41.9H271l.44.2,1.85.86-.8,4.14c-.66,0-1.34.06-2,.06a37,37,0,0,1-8.16-.95l-.93-.23-1.16,2.86-.22,0a13.25,13.25,0,0,1-4.23-2c.33,1,.72,2,1.12,3,.22.57.44,1.13.65,1.69s.31.83.46,1.24l2.44,7Z"/><path class="cls-3" d="M345.69,153.91a60,60,0,0,0-10.15,3.32q-2.32,1-4.56,2.23a51.27,51.27,0,0,0-6.31,4.07,44.33,44.33,0,0,0-5.09,4.48h0c-.48.48-.94,1-1.39,1.47-.66.75-1.31,1.51-1.93,2.31a47.83,47.83,0,0,0-9.35,21.93,4.18,4.18,0,0,1-.15.61,1.15,1.15,0,0,1-.2.3l-.05,0a5.34,5.34,0,0,1-2.14-4,27,27,0,0,0-.15,17.78c.24.75.49,1.51.77,2.26a12.1,12.1,0,0,1-1.06-.83,15.75,15.75,0,0,1-3.28-4,5.93,5.93,0,0,0-.1.77l0,.82a63,63,0,0,1-4.64,22.25,47,47,0,0,1-5.65,9.87c-4,5.48-9.34,9.27-15.26,12.42A61.62,61.62,0,0,0,262.85,260a26.66,26.66,0,0,0-9.34,22.52,47.73,47.73,0,0,0,2,10.51,2.31,2.31,0,0,1,.13,1,20.5,20.5,0,0,1-3.38-5.22c-.54-1.15-1-2.34-1.5-3.56l-.94-2.35c-1.6,5.88-2.43,11.77-1.41,17.84a29.75,29.75,0,0,1-3.47-10.12c-1.18,4.6-1.77,9-.58,13.63a31.22,31.22,0,0,1-8.16-5,26.12,26.12,0,0,0,6.87,8.16c-1,.31-4-.27-7.29-1.2l6.05,4.26a5.61,5.61,0,0,1-1.05.59c-4.23,1.51-8.46,3-12.71,4.47-1.94.66-3.93,1.17-5.9,1.76a7.66,7.66,0,0,0-1.78.77,5.2,5.2,0,0,0-1.47,1.3c-.89,1.18-1.72,2.4-2.53,3.63s-1.56,2.46-2.33,3.68l.28.33,1.83-.32c9-1.61,18-3.52,26.43-7.23a60.65,60.65,0,0,0,5.76-2.88c.14,3.4.27,6.78.41,10.16H249c.43-2.46.86-4.9,1.3-7.35h.29c1.23,3.39,1.85,7.12,4.55,9.74.27.26.56.5.86.74-.14-.39-.28-.79-.43-1.19-1.32-3.47-2.93-6.84-2.95-10.71,2.54,1.95,4.75,4.32,8,5.13l.21.05-.16-.1c-1-.61-2-1.15-2.88-1.84a6,6,0,0,1-2.3-3,62.87,62.87,0,0,0,7.37,2.24,33.63,33.63,0,0,0,9.56.85c-2-1-3.83-1.7-5.53-2.66-.56-.31-1.14-.62-1.7-1a6.85,6.85,0,0,1-2.79-2.87,7.58,7.58,0,0,1,.76.09,28.1,28.1,0,0,0,3.62.82,35.82,35.82,0,0,0,12.88-.47c.82-.17,1.63-.36,2.42-.56.94-.24,1.86-.51,2.76-.8h0a61.83,61.83,0,0,0,17.37-9.11c2.17-1.58,4.25-3.3,6.33-5-4.8,1-9.59,1.95-14.4,1.57a25.36,25.36,0,0,1-2.56-.35,18.49,18.49,0,0,1-1.89-.45l-.55-.15v-.25l.84,0,2.27-.15c.46,0,.92-.08,1.37-.14s1.18-.17,1.76-.27a35.85,35.85,0,0,0,14.1-6.21,46.68,46.68,0,0,0,9.21-8.71,65.33,65.33,0,0,0,7.28-11.1c.7-1.35,1.41-2.72,2-4.14-6,4.79-12.55,8.2-20.14,9.38l-.81.11,1-.43a47.15,47.15,0,0,0,21.69-19.17A57.27,57.27,0,0,0,336,243a34.3,34.3,0,0,1-5.53,5.34,12.69,12.69,0,0,1-4.37,2l-.2-.23c.65-.68,1.32-1.35,2-2a34.2,34.2,0,0,0,2.73-3.18,39.14,39.14,0,0,0,4-6.43,29.49,29.49,0,0,0,3-16.94c-.31-2.47-1-4.9-1.36-7.36a63.49,63.49,0,0,1-.39-19.95c-.63.49-1.23,1-1.84,1.48a7.58,7.58,0,0,1-4.95,2.06l-.42,0,.48-.47c.74-.73,1.5-1.43,2.18-2.19a24.54,24.54,0,0,0,3.29-4.64h0a17.72,17.72,0,0,0,2.12-8.09c0-1.66.79-3.31,1.25-5a16.27,16.27,0,0,1,.63-1.52c-1.13,1.06-2.14,2-3.14,2.91h0a.86.86,0,0,0-.14.13l-.23-.15c.15-.36.29-.72.42-1.09h0a23.26,23.26,0,0,1,.91-2.18q2.79-5.72,5.68-11.38a32.23,32.23,0,0,1,7.34-9.65c.7-.62,1.54-1.1,2.53-1.8C349.72,153.11,347.68,153.44,345.69,153.91ZM322,193.29l-.15,2.09c0,.08,0,.16,0,.25-.05.67-.11,1.34-.18,2,0,.53-.1,1.07-.16,1.61l-.18,1.61c-.06.46-.11.93-.17,1.39s-.13,1-.19,1.43c-.12.86-.24,1.73-.38,2.59-.09.61-.19,1.23-.3,1.84l0,.32,0,.25-.09.49c0,.3-.1.6-.16.9l-.12.69-.06.29c-.09.52-.2,1.05-.3,1.57a.2.2,0,0,0,0,.07c-.13.62-.25,1.25-.39,1.87l-.06.31,0,.1-.09.42c-.33,1.56-.69,3.11-1.07,4.66-.09.37-.18.75-.28,1.12-.13.55-.28,1.09-.42,1.64l-.22.84-.47,1.73-.6,2.1c-.08.26-.16.52-.23.78q-.9,3.09-1.93,6.13a1.39,1.39,0,0,1-.06.19l-.36,1.06c-.19.55-.38,1.1-.58,1.66-.06.17-.12.34-.19.51-.14.41-.29.81-.44,1.21-.28.77-.57,1.53-.87,2.29-.19.51-.39,1-.6,1.51l-.3.75c-.32.78-.65,1.55-1,2.33-.2.47-.41.93-.62,1.4-.33.74-.67,1.47-1,2.21-.12.24-.24.49-.35.74s-.15.3-.23.46c-.16.34-.32.67-.49,1-.7,1.41-1.4,2.83-2.11,4.24-.18.37-.37.73-.56,1.09l-.52,1c-.24.47-.48.93-.74,1.4l-.18.35-.19.34c-.12.23-.25.46-.37.7h0l-.37.65-.07.12-.33.59-.23.38a.67.67,0,0,1-.06.12h0a2,2,0,0,0-.11.2c-.57,1-1.16,2-1.75,2.93-.2.32-.4.64-.59,1h0q-.28.48-.6,1c-.12.2-.25.4-.38.6s-.37.59-.57.88c-1.12,1.73-2.29,3.43-3.53,5.09a6.41,6.41,0,0,1-.39.52l-.09.13-.2.26c-.28.38-.58.75-.87,1.12l-.46.58c-.26.33-.53.65-.8,1-2.71,3.25-5.39,6.52-8.25,9.62l-.15.16-1,1.1L279.89,290l-.94,1-.53.52-.54.54-.88.83c-.25.25-.52.49-.78.73l-1,.9c-.33.31-.67.61-1,.91l-1,.91-.63.52-.09.08-.88.72-.94.75-.76.6-1.53,1.14-.6.45c-.54.39-1.08.78-1.63,1.16-1.55,1.11-3.11,2.19-4.69,3.26l-2,1.32-.14.08c-.4.27-.79.53-1.2.78l-1.28.83-1.4.88-.67.42-1.14.69-1.19.71c-1,.57-2,1.12-3,1.64-.29.16-.59.31-.89.46-1,.51-2,1-3.06,1.46-.46.22-.93.42-1.4.63l-1.41.62-1.83.77-.93.38-.51.2c-3.23,1.29-6.49,2.49-9.74,3.72l-1.86.7a1.14,1.14,0,0,1-.27.08.88.88,0,0,1-.31,0,.48.48,0,0,1-.18-.05h0l0,0c-.16-.11-.23-.34-.2-.69a.33.33,0,0,1,0-.1,2.1,2.1,0,0,1,.14-.48c0-.05.05-.11.09-.17a2.09,2.09,0,0,1,.16-.29l.11-.15.08-.12,0-.05.07-.09.07-.08.08-.08a1.06,1.06,0,0,1,.15-.15h0l.15-.14.17-.13.13-.09.22-.13.15-.08.09,0,.08,0,2-.57,1.32-.39.71-.22.51-.15.5-.17.76-.24.25-.08.38-.14.62-.21.32-.12.67-.25c.54-.2,1.07-.42,1.61-.63.22-.09.44-.17.65-.27l.64-.26.31-.12L241,314l.77-.34.33-.14.42-.19.47-.21.75-.34h0l.27-.13h0l0,0,.08,0,.49-.24h0l1.21-.59.6-.29.27-.13.87-.44,1.09-.56c1.11-.58,2.2-1.18,3.28-1.79l.79-.46.1-.06a1.23,1.23,0,0,0,.25-.14h0l.14-.08.19-.12,1.06-.62.18-.12.89-.54.89-.56.49-.3.17-.11.13-.08.05,0,.05,0,.35-.23c.52-.33,1-.67,1.54-1l.75-.51.43-.29c.18-.12.37-.25.55-.39l1-.69c.27-.18.53-.37.79-.56l.78-.57a3.55,3.55,0,0,1,.31-.23c.8-.59,1.59-1.2,2.37-1.81l.2-.16.6-.47.74-.6c.71-.57,1.41-1.15,2.1-1.73.23-.21.48-.41.72-.62l.26-.22.31-.27,0,0,.61-.54.16-.14c.62-.54,1.22-1.09,1.83-1.65l.66-.61.66-.62.86-.82.85-.83c.69-.67,1.37-1.36,2-2l1.2-1.25,1.18-1.25c.54-.59,1.08-1.18,1.61-1.78.33-.36.64-.72,1-1.08.76-.87,1.51-1.74,2.24-2.63l.34-.42c.24-.28.48-.58.71-.87l.8-1,.79-1,.15-.19.06-.08.24-.31.09-.13.22-.28.7-.92.85-1.15q1.13-1.54,2.22-3.12l.73-1.05.75-1.14c.25-.37.5-.76.74-1.14l.28-.44.45-.71c.24-.38.47-.77.71-1.16l1-1.59.31-.53.13-.22,1.35-2.36c.61-1.08,1.21-2.15,1.8-3.24h0c.31-.56.61-1.13.91-1.7.14-.25.28-.52.41-.78q1.26-2.39,2.42-4.83c1.87-4,3.69-8,5.19-12.08.25-.67.49-1.34.73-2s.55-1.55.81-2.33c.09-.24.16-.47.25-.71s.21-.62.31-.92c.46-1.39.91-2.78,1.36-4.18.22-.68.43-1.36.64-2s.43-1.36.63-2.05.42-1.37.62-2.05c.16-.52.31-1,.46-1.57.06-.19.11-.38.17-.58s.18-.66.28-1,.25-.92.37-1.38c.39-1.47.76-3,1.11-4.44,0-.17.07-.34.11-.51l.09-.37.21-.91.24-1.11c.05-.21.1-.42.14-.62a.5.5,0,0,0,0-.12c.12-.55.23-1.09.35-1.63s.21-1.07.31-1.6.21-1.07.31-1.6.23-1.23.35-1.85q.56-3.08,1-6.19c0-.25.08-.5.11-.76s.09-.5.13-.75l.1-.66a.31.31,0,0,0,0-.1l.12-.67v-.08h.12l.13,0C322,192.72,322,193,322,193.29Z"/><circle class="cls-3" cx="225.64" cy="143.06" r="8.9"/></svg>