<svg id="Layer_1" data-name="Layer 1" xmlns="http://www.w3.org/2000/svg" viewBox="0 0 1080 270"><defs><style>.cls-1{fill:#fff;}.cls-2{fill:#362222;}.cls-3{fill:#b3541e;}</style></defs><rect class="cls-1" y="-538.75" width="540" height="540"/><rect class="cls-1" width="1080" height="270"/><rect class="cls-2" x="540" y="-538.75" width="540" height="540"/><path class="cls-3" d="M363.46,92.94a6.22,6.22,0,0,1-1.27,3.55q-1.28,1.83-3,3.86a40.88,40.88,0,0,1-2.94-3.86A6.35,6.35,0,0,1,355,92.94a4.17,4.17,0,0,1,1.22-3,3.91,3.91,0,0,1,2.94-1.27,4.34,4.34,0,0,1,4.27,4.27Zm-7.62,18.18,6.81-3.76v55.36h-6.81Z"/><path class="cls-2" d="M381.28,78.51v84.21h-6.8V82.37Z"/><path class="cls-2" d="M399.46,78.51v84.21h-6.8V82.37Z"/><path class="cls-2" d="M454.31,107.36v55.36l-6.8-2.54V145.86a24.5,24.5,0,0,1-2.75,7.92,20.83,20.83,0,0,1-4.57,5.59,18.73,18.73,0,0,1-5.73,3.35,18.18,18.18,0,0,1-13-.15,17,17,0,0,1-5.79-3.81,19,19,0,0,1-4.06-6.3,23.29,23.29,0,0,1-1.52-8.74v-32.6l6.8-3.76v36.36a17.49,17.49,0,0,0,1.22,6.71,15.1,15.1,0,0,0,3.25,5,14.41,14.41,0,0,0,4.68,3.15,13.42,13.42,0,0,0,11.17-.2,14.72,14.72,0,0,0,5.13-4.11,22,22,0,0,0,3.7-7.11,33.45,33.45,0,0,0,1.43-10.42V111.12Z"/><path class="cls-2" d="M470.36,116.6a9,9,0,0,0,2.29,6.3,22.26,22.26,0,0,0,5.73,4.47A71.08,71.08,0,0,0,485.9,131a59.78,59.78,0,0,1,7.52,3.7,21.51,21.51,0,0,1,5.74,4.83,10.64,10.64,0,0,1,2.28,7,17.16,17.16,0,0,1-1.67,7.72,16.35,16.35,0,0,1-4.42,5.53,19.19,19.19,0,0,1-6.25,3.3,23.29,23.29,0,0,1-7.16,1.12,24,24,0,0,1-6.2-.81,23.53,23.53,0,0,1-5.74-2.39,18.47,18.47,0,0,1-4.72-4,17.64,17.64,0,0,1-3.15-5.54l2.85-1a18.46,18.46,0,0,0,3.09,5.58,20.15,20.15,0,0,0,4.42,4.07,19.4,19.4,0,0,0,5.13,2.43,18.5,18.5,0,0,0,5.44.82,16.2,16.2,0,0,0,5.28-.87,12.18,12.18,0,0,0,4.42-2.59,13.14,13.14,0,0,0,3-4.31,14.58,14.58,0,0,0,1.17-6.05,7.38,7.38,0,0,0-2.28-5.48A24.27,24.27,0,0,0,488.9,140c-2.34-1.22-4.84-2.39-7.52-3.51a56.91,56.91,0,0,1-7.52-3.81,22.1,22.1,0,0,1-5.79-5,10.83,10.83,0,0,1-2.28-7,12.35,12.35,0,0,1,1.32-5.79,13,13,0,0,1,3.5-4.27,15.34,15.34,0,0,1,5-2.59,19.52,19.52,0,0,1,5.74-.86,18.77,18.77,0,0,1,9.45,2.54,14.71,14.71,0,0,1,6.5,7.72l-3,.91a15.27,15.27,0,0,0-6-7.87,14.81,14.81,0,0,0-7.93-2.49,11.34,11.34,0,0,0-6.95,2.23A7.51,7.51,0,0,0,470.36,116.6Z"/><path class="cls-2" d="M517.29,148.5a17.85,17.85,0,0,0,.76,5.18,15.17,15.17,0,0,0,2.18,4.52,10.24,10.24,0,0,0,8.64,4.31v.72a19.43,19.43,0,0,1-8.79-1.78,15,15,0,0,1-5.64-4.88,20.31,20.31,0,0,1-3-7.26,42.13,42.13,0,0,1-.92-9V108.88H505V108h5.48V99.44l6.81-3.86V108h9.14v.91h-9.14Z"/><path class="cls-2" d="M542,122.29a24.46,24.46,0,0,1,2.64-5.84,20.21,20.21,0,0,1,4.11-4.82,19.17,19.17,0,0,1,5.28-3.2,15.28,15.28,0,0,1,6.25-1.07l-1.32,3a14.75,14.75,0,0,0-8.18,1.72,15.73,15.73,0,0,0-5.23,4.83,19.35,19.35,0,0,0-2.74,6.4,29.14,29.14,0,0,0-.81,6.55v32.81h-6.81v-51.6l6.81-3.76Z"/><path class="cls-2" d="M601,128v34.84h-.4l-6.3-6.4V148.9a20.33,20.33,0,0,1-2.95,6.5,19.66,19.66,0,0,1-4.41,4.58,19.05,19.05,0,0,1-5.29,2.74,18,18,0,0,1-5.63.91,17.08,17.08,0,0,1-5.84-1,14.45,14.45,0,0,1-8.38-7.72,15.42,15.42,0,0,1-1.32-6.61,14.17,14.17,0,0,1,2.64-8.73,18.94,18.94,0,0,1,7.21-5.74,39.94,39.94,0,0,1,10.71-3.2,81.13,81.13,0,0,1,13.26-1V123a14.78,14.78,0,0,0-1.17-6.14,12.39,12.39,0,0,0-7.62-6.91,16.85,16.85,0,0,0-5.33-.86,18.74,18.74,0,0,0-8.07,1.88,19.84,19.84,0,0,0-7,5.43l-1-.91a22.41,22.41,0,0,1,3.81-3.56,24.32,24.32,0,0,1,4.72-2.74,31.41,31.41,0,0,1,5.24-1.78,22.28,22.28,0,0,1,5.33-.66,19.2,19.2,0,0,1,6.65,1.17,15.53,15.53,0,0,1,5.69,3.66,17.52,17.52,0,0,1,4,6.55A29.08,29.08,0,0,1,601,128Zm-34,19.4a17.77,17.77,0,0,0,1,6.09,13.43,13.43,0,0,0,2.54,4.42,9.74,9.74,0,0,0,3.71,2.64,11.47,11.47,0,0,0,4.37.87,13.56,13.56,0,0,0,5.58-1.27,14.59,14.59,0,0,0,5.08-3.86,20.93,20.93,0,0,0,3.66-6.4,25.24,25.24,0,0,0,1.42-8.79V130.72a61.27,61.27,0,0,0-10.77.71,28,28,0,0,0-8.68,2.8,15.23,15.23,0,0,0-5.79,5.23A14.38,14.38,0,0,0,567,147.38Z"/><path class="cls-3" d="M635.31,91.82a35.72,35.72,0,0,1,15,3.15A32.15,32.15,0,0,1,661.06,103a33.63,33.63,0,0,1,6.45,11.43,41.11,41.11,0,0,1,2.14,13,40.58,40.58,0,0,1-2.14,13,33.19,33.19,0,0,1-6.45,11.33,31.67,31.67,0,0,1-10.76,8,34.37,34.37,0,0,1-15,2.9H612.36V91.82Zm0,70a23,23,0,0,0,11.89-3,27.32,27.32,0,0,0,8.48-7.82,34.61,34.61,0,0,0,5.08-11.08,48.9,48.9,0,0,0,0-25.34,35.27,35.27,0,0,0-5.08-11.07,26.4,26.4,0,0,0-8.48-7.82,23.33,23.33,0,0,0-11.89-3h-6.7a40,40,0,0,0-5.13.26,4.74,4.74,0,0,0-2.79,1.17,4.5,4.5,0,0,0-1.17,2.59,31.52,31.52,0,0,0-.25,4.52v52a31.62,31.62,0,0,0,.25,4.52,4.5,4.5,0,0,0,1.17,2.59,4.74,4.74,0,0,0,2.79,1.17,40.3,40.3,0,0,0,5.13.25Z"/><path class="cls-2" d="M725.71,141.79a29.13,29.13,0,0,1-3.65,9.6,26.94,26.94,0,0,1-5.95,6.86,23.94,23.94,0,0,1-7.46,4.11,25.42,25.42,0,0,1-8.23,1.37,24.12,24.12,0,0,1-8.94-1.72,22.21,22.21,0,0,1-7.72-5.13,25.79,25.79,0,0,1-5.43-8.59,32.2,32.2,0,0,1-2.08-12.08A34.38,34.38,0,0,1,678.53,123a26.86,26.86,0,0,1,5.89-9,22.61,22.61,0,0,1,8.18-5.13,27.2,27.2,0,0,1,9.14-1.62,25.31,25.31,0,0,1,7.57,1.12,21.63,21.63,0,0,1,6.45,3.2,16,16,0,0,1,4.52,5,13.12,13.12,0,0,1,1.67,6.61l-40.73-.11c-.13.75-.27,1.6-.4,2.54a18.19,18.19,0,0,0-.21,2.64,41.73,41.73,0,0,0,1.93,13.51,26.85,26.85,0,0,0,5.08,9.15,19.23,19.23,0,0,0,7.16,5.18,22,22,0,0,0,8.28,1.62,23.24,23.24,0,0,0,7.16-1.12,23.72,23.72,0,0,0,6.55-3.25,24.28,24.28,0,0,0,5.34-5.08,19,19,0,0,0,3.3-6.6Zm-11.47-22.85a8.61,8.61,0,0,0-1.12-4.37,10.53,10.53,0,0,0-3-3.25,13.78,13.78,0,0,0-4.26-2,18.63,18.63,0,0,0-5.18-.71,21.42,21.42,0,0,0-5.59.76,18.86,18.86,0,0,0-5.43,2.44,21.78,21.78,0,0,0-4.73,4.16,19.82,19.82,0,0,0-3.45,6l29.25-.1c1.49,0,2.44-.22,2.85-.67A3.37,3.37,0,0,0,714.24,118.94Z"/><path class="cls-2" d="M738.41,116.6a9.07,9.07,0,0,0,2.28,6.3,22.49,22.49,0,0,0,5.74,4.47A71.08,71.08,0,0,0,754,131a59.78,59.78,0,0,1,7.52,3.7,21.51,21.51,0,0,1,5.74,4.83,10.64,10.64,0,0,1,2.28,7,17,17,0,0,1-1.68,7.72,16.2,16.2,0,0,1-4.41,5.53,19.19,19.19,0,0,1-6.25,3.3,23.29,23.29,0,0,1-7.16,1.12,24,24,0,0,1-6.2-.81,23.53,23.53,0,0,1-5.74-2.39,18.3,18.3,0,0,1-4.72-4,17.64,17.64,0,0,1-3.15-5.54l2.85-1a18.46,18.46,0,0,0,3.09,5.58,20.15,20.15,0,0,0,4.42,4.07,19.4,19.4,0,0,0,5.13,2.43,18.45,18.45,0,0,0,5.44.82,16.24,16.24,0,0,0,5.28-.87,12.18,12.18,0,0,0,4.42-2.59,13.14,13.14,0,0,0,3-4.31,14.58,14.58,0,0,0,1.17-6.05,7.38,7.38,0,0,0-2.28-5.48A24.27,24.27,0,0,0,757,140q-3.51-1.83-7.52-3.51a56.3,56.3,0,0,1-7.52-3.81,22.1,22.1,0,0,1-5.79-5,10.83,10.83,0,0,1-2.28-7,12.35,12.35,0,0,1,1.32-5.79,13,13,0,0,1,3.5-4.27,15.34,15.34,0,0,1,5-2.59,19.47,19.47,0,0,1,5.74-.86,18.8,18.8,0,0,1,9.45,2.54,14.75,14.75,0,0,1,6.5,7.72l-3.05.91a15.27,15.27,0,0,0-6-7.87,14.81,14.81,0,0,0-7.93-2.49,11.34,11.34,0,0,0-7,2.23A7.51,7.51,0,0,0,738.41,116.6Z"/><path class="cls-2" d="M785.44,92.94a6.29,6.29,0,0,1-1.27,3.55q-1.27,1.83-3,3.86a40.88,40.88,0,0,1-2.94-3.86A6.35,6.35,0,0,1,777,92.94a4.17,4.17,0,0,1,1.22-3,3.91,3.91,0,0,1,2.94-1.27,4.34,4.34,0,0,1,4.27,4.27Zm-7.62,18.18,6.8-3.76v55.36h-6.8Z"/><path class="cls-2" d="M819.77,158.25a78.79,78.79,0,0,1,10,.2,25.44,25.44,0,0,1,7.72,1.78,10.72,10.72,0,0,1,4.93,4,12.65,12.65,0,0,1,1.73,7,15.79,15.79,0,0,1-2.29,8.13,20.53,20.53,0,0,1-6.81,6.75,38.5,38.5,0,0,1-11.27,4.62A64.24,64.24,0,0,1,808,192.48v-.92a77.62,77.62,0,0,0,9.24-.66,48.41,48.41,0,0,0,10.36-2.43,25.71,25.71,0,0,0,8.48-4.88,10.14,10.14,0,0,0,3.5-8q0-6.7-4.67-9.25t-15.13-2c-1.56,0-3.1,0-4.62-.05s-3,0-4.42,0a30.36,30.36,0,0,1-4.73-.35,13.09,13.09,0,0,1-3.85-1.22,6.93,6.93,0,0,1-2.65-2.34,6.46,6.46,0,0,1-1-3.61,6.05,6.05,0,0,1,2.59-4.67q2.6-2.13,7.77-2.64a21.1,21.1,0,0,1-6-2.54,19.11,19.11,0,0,1-4.88-4.31,19.62,19.62,0,0,1-3.25-6.05,24.3,24.3,0,0,1-1.17-7.82,22.83,22.83,0,0,1,1.83-9.45,19.26,19.26,0,0,1,4.93-6.75,20.4,20.4,0,0,1,7.16-4,27.43,27.43,0,0,1,8.53-1.32l23.77-1.63-.31,2.85-17.16-.51a22.44,22.44,0,0,1,6.24,2.54,18.58,18.58,0,0,1,5,4.31,20.17,20.17,0,0,1,3.3,6.1,23.9,23.9,0,0,1,1.22,7.87,22.83,22.83,0,0,1-1.83,9.45,19.53,19.53,0,0,1-4.87,6.75,20.48,20.48,0,0,1-7.06,4.06,25.91,25.91,0,0,1-8.48,1.38c-.55,0-1.1,0-1.68-.05s-1.13-.09-1.67-.16a26.13,26.13,0,0,0-7.62,1.22c-1.83.68-2.75,1.59-2.75,2.74a2.75,2.75,0,0,0,.82,2,6.09,6.09,0,0,0,2.08,1.32,13.39,13.39,0,0,0,2.94.76,22.72,22.72,0,0,0,3.41.25c1.62,0,3.2,0,4.72-.1S818.82,158.25,819.77,158.25Zm-8.53-49.47q-5.7,1-8.54,4.57a16,16,0,0,0-3.4,8.28,24.28,24.28,0,0,0,1,9.85,30.65,30.65,0,0,0,4.47,9.25,21.58,21.58,0,0,0,7.16,6.45A13.61,13.61,0,0,0,821,148.7a12.79,12.79,0,0,0,10.21-8.33,19.76,19.76,0,0,0,1.16-6.86,28.8,28.8,0,0,0-1-7.46,30.8,30.8,0,0,0-3-7.16,24.5,24.5,0,0,0-4.52-5.84,17.31,17.31,0,0,0-5.79-3.66A13,13,0,0,0,811.24,108.78Z"/><path class="cls-2" d="M893.2,126.46v36.26h-6.8V126.46a19.88,19.88,0,0,0-1.22-7.27,14.93,14.93,0,0,0-3.25-5.13,13.28,13.28,0,0,0-4.67-3,14.85,14.85,0,0,0-5.39-1,15.12,15.12,0,0,0-5.79,1.17,16.11,16.11,0,0,0-5.13,3.4,16.84,16.84,0,0,0-3.7,5.59,19.58,19.58,0,0,0-1.43,7.72v34.84H849v-49l6.8-5.79v12.09a17.53,17.53,0,0,1,3.1-5.49,19.31,19.31,0,0,1,4.52-3.91,21.47,21.47,0,0,1,5.39-2.39,21,21,0,0,1,5.79-.81,20.33,20.33,0,0,1,6.85,1.17,17.42,17.42,0,0,1,5.89,3.5,17,17,0,0,1,4.17,6,20.74,20.74,0,0,1,1.57,8.38Z"/><path class="cls-2" d="M252.2,75.72q13.86.16,24.13,5a51.55,51.55,0,0,1,17.19,13,54.07,54.07,0,0,1,10.35,18.34A65.63,65.63,0,0,1,307.3,133a64.89,64.89,0,0,1-3.43,20.87,53.31,53.31,0,0,1-10.35,18.17,50.88,50.88,0,0,1-17.27,12.8q-10.37,4.8-24.05,4.64H215.37V75.72Zm0,112.31a36.88,36.88,0,0,0,19.07-4.81,43.69,43.69,0,0,0,13.62-12.55A55.63,55.63,0,0,0,293,152.9a78,78,0,0,0,2.69-20.37,77.15,77.15,0,0,0-2.69-20.3,56.69,56.69,0,0,0-8.14-17.76,42.31,42.31,0,0,0-13.62-12.55,37.24,37.24,0,0,0-19.07-4.73H241.45a64.82,64.82,0,0,0-8.23.41,7.59,7.59,0,0,0-4.49,1.87,7.2,7.2,0,0,0-1.87,4.16,50.9,50.9,0,0,0-.41,7.25v83.45a51.06,51.06,0,0,0,.41,7.26,7.16,7.16,0,0,0,1.87,4.15,7.59,7.59,0,0,0,4.49,1.88,64.82,64.82,0,0,0,8.23.41Z"/><path class="cls-2" d="M191.88,188V73.67H203V188Z"/><path class="cls-3" d="M754.15,173.15a2.56,2.56,0,0,0,.45,1.53,4.47,4.47,0,0,0,1.16,1.13,8.54,8.54,0,0,0,1.65.87c.63.25,1.26.49,1.92.73s1.29.5,1.91.77a8.65,8.65,0,0,1,1.65.93,4.55,4.55,0,0,1,1.17,1.23,3.14,3.14,0,0,1,.44,1.68,5.24,5.24,0,0,1-.52,2.4,5,5,0,0,1-1.39,1.73,6.17,6.17,0,0,1-2,1,7.72,7.72,0,0,1-2.3.35,8.18,8.18,0,0,1-2-.25,6.79,6.79,0,0,1-1.8-.75,6.69,6.69,0,0,1-1.49-1.22,5.2,5.2,0,0,1-1-1.73l.67-.3a5.78,5.78,0,0,0,1,1.72,6,6,0,0,0,1.42,1.19,6.42,6.42,0,0,0,1.69.7,6.81,6.81,0,0,0,1.78.24,6.57,6.57,0,0,0,1.88-.27,5,5,0,0,0,1.6-.8,3.91,3.91,0,0,0,1.12-1.3,3.74,3.74,0,0,0,.42-1.8,2.18,2.18,0,0,0-.77-1.7A7.68,7.68,0,0,0,760.9,180c-.78-.35-1.61-.69-2.5-1a19.19,19.19,0,0,1-2.51-1.1,6.71,6.71,0,0,1-1.94-1.49,3.16,3.16,0,0,1-.77-2.16,4,4,0,0,1,.45-1.92,4.19,4.19,0,0,1,1.18-1.39,5.07,5.07,0,0,1,1.67-.85,6.69,6.69,0,0,1,1.94-.28A7,7,0,0,1,760,170a5.92,5.92,0,0,1,1.45.57,5.42,5.42,0,0,1,1.22,1,4.34,4.34,0,0,1,.84,1.39l-.6.3a5.35,5.35,0,0,0-.9-1.4,5.08,5.08,0,0,0-1.18-1,6.11,6.11,0,0,0-1.35-.56,5.74,5.74,0,0,0-1.41-.18,5.12,5.12,0,0,0-1.47.21,4.2,4.2,0,0,0-1.26.6,3,3,0,0,0-.87.94A2.5,2.5,0,0,0,754.15,173.15Z"/><path class="cls-3" d="M768.6,184a4.25,4.25,0,0,0,.19,1.27,3.62,3.62,0,0,0,.53,1.1,2.42,2.42,0,0,0,.88.77,2.6,2.6,0,0,0,1.23.29v.17a4.73,4.73,0,0,1-2.15-.43A3.71,3.71,0,0,1,767.9,186a5.19,5.19,0,0,1-.74-1.78,10.22,10.22,0,0,1-.22-2.21v-7.67h-1.35v-.22h1.35V172l1.66-.94v3h2.23v.22H768.6Z"/><path class="cls-3" d="M783.3,174v13.53l-1.67-.62v-3.5a5.71,5.71,0,0,1-.67,1.93,5.05,5.05,0,0,1-1.11,1.37,4.68,4.68,0,0,1-1.41.82,4.47,4.47,0,0,1-1.52.27,4.38,4.38,0,0,1-1.64-.31,4.26,4.26,0,0,1-1.42-.93,4.64,4.64,0,0,1-1-1.54,5.59,5.59,0,0,1-.37-2.13v-8l1.66-.92v8.89a4.19,4.19,0,0,0,.3,1.63,3.73,3.73,0,0,0,.79,1.22,3.53,3.53,0,0,0,1.14.77,3.39,3.39,0,0,0,1.32.27,3.3,3.3,0,0,0,1.42-.32,3.47,3.47,0,0,0,1.25-1,5.53,5.53,0,0,0,.91-1.73,8.29,8.29,0,0,0,.34-2.55v-6.25Z"/><path class="cls-3" d="M797.92,166.9v20.73h-.1l-1.56-1.57v-3.4a7.36,7.36,0,0,1-.89,2.21,6.38,6.38,0,0,1-1.35,1.59,5.39,5.39,0,0,1-3.47,1.29,4.89,4.89,0,0,1-1.88-.38,4.73,4.73,0,0,1-1.61-1.15,5.5,5.5,0,0,1-1.13-1.91,7.93,7.93,0,0,1-.42-2.72,8.26,8.26,0,0,1,.62-3.36,7.19,7.19,0,0,1,1.61-2.38,6.49,6.49,0,0,1,2.23-1.43,6.79,6.79,0,0,1,2.46-.47,5.9,5.9,0,0,1,2.11.38,4.45,4.45,0,0,1,1.72,1.18v-7.67Zm-1.66,13.75v-2.28a3.65,3.65,0,0,0-.38-1.68,3.53,3.53,0,0,0-1-1.23,4.72,4.72,0,0,0-1.44-.76,5.51,5.51,0,0,0-3.55.07,4.69,4.69,0,0,0-1.68,1,5.34,5.34,0,0,0-1.2,1.74,6.15,6.15,0,0,0-.46,2.51,9.31,9.31,0,0,0,.41,2.9,6,6,0,0,0,1.09,2,4.48,4.48,0,0,0,1.55,1.19,4.15,4.15,0,0,0,1.77.4,4.42,4.42,0,0,0,1.8-.39,4.58,4.58,0,0,0,1.56-1.13,5.73,5.73,0,0,0,1.1-1.84A7,7,0,0,0,796.26,180.65Z"/><path class="cls-3" d="M802.56,170.42a1.52,1.52,0,0,1-.31.87c-.21.3-.45.61-.73.94a10.31,10.31,0,0,1-.72-.94,1.57,1.57,0,0,1-.3-.87,1,1,0,0,1,.3-.73,1,1,0,0,1,.72-.31,1.06,1.06,0,0,1,1,1Zm-1.86,4.45,1.66-.92v13.53H800.7Z"/><path class="cls-3" d="M810.93,174a6.15,6.15,0,0,1,2.7.56,5.86,5.86,0,0,1,2,1.51,6.91,6.91,0,0,1,1.25,2.2,8.2,8.2,0,0,1,0,5.24,6.87,6.87,0,0,1-1.25,2.19,5.89,5.89,0,0,1-2,1.52,6.79,6.79,0,0,1-5.4,0,5.87,5.87,0,0,1-2-1.52,6.71,6.71,0,0,1-1.26-2.19,8.2,8.2,0,0,1,0-5.24,6.75,6.75,0,0,1,1.26-2.2,5.84,5.84,0,0,1,2-1.51A6.15,6.15,0,0,1,810.93,174ZM806,179.36a10,10,0,0,0,.49,3.43,7.67,7.67,0,0,0,1.37,2.43,5.64,5.64,0,0,0,1.89,1.45,4.94,4.94,0,0,0,2.08.49,4.14,4.14,0,0,0,1.48-.28,3.44,3.44,0,0,0,1.25-.82,3.79,3.79,0,0,0,.87-1.36,5.48,5.48,0,0,0,.35-1.89,10.34,10.34,0,0,0-.48-3.56,8.25,8.25,0,0,0-1.41-2.6,6.38,6.38,0,0,0-1.93-1.59,4.69,4.69,0,0,0-2.11-.54,3.57,3.57,0,0,0-1.44.3,3.21,3.21,0,0,0-1.22.89,4.51,4.51,0,0,0-.84,1.5A6.54,6.54,0,0,0,806,179.36Z"/><path class="cls-1" d="M218.3,198.59a8.35,8.35,0,0,1-.75-.65,9.47,9.47,0,0,1-1.83-2.52l-.21,1.22h-1.42l-1.6.09-.26-6.48c-.69.34-1.38.66-2.08,1-6,2.62-12.13,4-19.57,5.36l-1.33.23-.88.16-.59-.67-.2-.23-.78-.89.63-1,.54-.88c.38-.6.76-1.22,1.17-1.83.68-1,1.26-1.88,1.9-2.73a5.55,5.55,0,0,1,1.51-1.34,7.47,7.47,0,0,1,1.66-.72l1.46-.42c1-.27,1.87-.53,2.78-.84,2.41-.83,4.85-1.69,7.25-2.54l-2-1.44,1.33-2.82.38.11a21.75,21.75,0,0,1-1.88-2.89l2.44-1.93a16.55,16.55,0,0,0,2.85,2,24.31,24.31,0,0,1,.92-7.52l2.38.14a39.91,39.91,0,0,1,1.17-5.77l1.24-4.53,1.39,3.45a20.86,20.86,0,0,1,7.35-16.3,47.1,47.1,0,0,1,9.13-6.09c4.78-2.54,8.14-5.27,10.56-8.57a31.57,31.57,0,0,0,3.92-6.85,44.5,44.5,0,0,0,3.26-15.62l0-.6a3.54,3.54,0,0,1,0-.48c0-.06,0-.14,0-.23l.59-4.43,1,1.67A20.24,20.24,0,0,1,253,95.53l2.23.28a35.19,35.19,0,0,1,6.66-14.35c.45-.58.93-1.16,1.47-1.76.21-.23.41-.45.61-.65h0l.44-.47a34.72,34.72,0,0,1,3.89-3.42,40.09,40.09,0,0,1,4.78-3.08,38,38,0,0,1,3.45-1.68,45.27,45.27,0,0,1,7.64-2.51c1-.24,2-.42,3.09-.62l1.52-.29L290,69.83l-.69.47a11.77,11.77,0,0,0-1,.73,22,22,0,0,0-5,6.55c-1.32,2.59-2.63,5.23-3.77,7.55l1.29.89c-.08.18-.16.35-.22.5a2.07,2.07,0,0,0-.18.42c-.11.38-.23.75-.35,1.11a7.88,7.88,0,0,0-.5,2.11,14.25,14.25,0,0,1-1.41,6l1.34-1.06L278.91,99a45.17,45.17,0,0,0,.28,14c.12.71.27,1.42.42,2.16.22,1.06.44,2.15.58,3.26a23,23,0,0,1-2.33,13.21c-.31.63-.64,1.23-1,1.82l2.13,1.11a43.52,43.52,0,0,1-4.78,12.23,35.42,35.42,0,0,1-4.39,5.93l.79-.62,2.43,1.89c-.48,1.05-1,2.06-1.53,3.09a48.63,48.63,0,0,1-5.47,8.34,35.68,35.68,0,0,1-7,6.62,31.8,31.8,0,0,1-3.51,2.17l1.51-.3.09,0,1.34,2.76c-1.7,1.44-3.15,2.62-4.7,3.75a47.69,47.69,0,0,1-12,6.48h0l-1.09.36c-.68.22-1.39.42-2.11.61s-1.23.3-1.83.42a30.56,30.56,0,0,1-6.12.66h-.45l.31.15,1.35.62-.58,3c-.48,0-1,0-1.46,0a26.63,26.63,0,0,1-5.93-.69l-.68-.16-.84,2.08-.16,0a9.63,9.63,0,0,1-3.07-1.42c.24.71.52,1.43.81,2.16l.48,1.22c.11.31.22.61.32.91l1.78,5.06Z"/><path class="cls-3" d="M284.51,69.43a43.66,43.66,0,0,0-7.38,2.42,36.13,36.13,0,0,0-3.31,1.62,36.91,36.91,0,0,0-4.59,3,31.87,31.87,0,0,0-3.7,3.25h0c-.35.35-.68.7-1,1.07-.49.54-.95,1.09-1.4,1.67a34.65,34.65,0,0,0-6.81,15.95,3.13,3.13,0,0,1-.1.44,1.06,1.06,0,0,1-.15.22l0,0a3.91,3.91,0,0,1-1.55-2.93,19.64,19.64,0,0,0-.11,12.93c.17.55.36,1.1.56,1.64a7.55,7.55,0,0,1-.77-.6,11.78,11.78,0,0,1-2.39-2.89,4.73,4.73,0,0,0-.07.55c0,.2,0,.4,0,.6a45.89,45.89,0,0,1-3.37,16.18,34.13,34.13,0,0,1-4.11,7.18,31.64,31.64,0,0,1-11.1,9,44.66,44.66,0,0,0-8.81,5.88,19.36,19.36,0,0,0-6.79,16.37,34.42,34.42,0,0,0,1.42,7.64,1.78,1.78,0,0,1,.09.7,15,15,0,0,1-2.46-3.79c-.39-.85-.74-1.71-1.09-2.59-.22-.57-.45-1.13-.68-1.71a29.66,29.66,0,0,0-1,13,21.7,21.7,0,0,1-2.53-7.36,19.27,19.27,0,0,0-.42,9.91,22.78,22.78,0,0,1-5.94-3.63,19,19,0,0,0,5,5.93c-.76.23-2.88-.19-5.3-.87l4.4,3.1a4,4,0,0,1-.76.43c-3.08,1.1-6.15,2.19-9.25,3.25-1.4.48-2.85.85-4.28,1.28a5.8,5.8,0,0,0-1.3.56,3.68,3.68,0,0,0-1.07.94c-.65.86-1.25,1.75-1.84,2.64s-1.13,1.79-1.69,2.68l.2.24,1.33-.24c6.58-1.16,13.09-2.55,19.22-5.25a45.41,45.41,0,0,0,4.19-2.09q.15,3.7.29,7.38h.18c.31-1.78.63-3.56.94-5.35h.22c.89,2.48,1.34,5.18,3.31,7.09a6.48,6.48,0,0,0,.62.54l-.31-.87c-1-2.52-2.14-5-2.15-7.78,1.85,1.41,3.45,3.14,5.8,3.73l.16,0-.12-.07a24.8,24.8,0,0,1-2.09-1.34,4.33,4.33,0,0,1-1.67-2.15,45.83,45.83,0,0,0,5.36,1.64,24.51,24.51,0,0,0,6.94.61c-1.46-.69-2.78-1.24-4-1.93-.41-.23-.84-.45-1.24-.7a4.88,4.88,0,0,1-2-2.09c.28,0,.42,0,.55.07a21.15,21.15,0,0,0,2.63.6,26,26,0,0,0,9.37-.35c.59-.12,1.18-.26,1.76-.4s1.35-.37,2-.59h0a45.1,45.1,0,0,0,12.62-6.62c1.58-1.15,3.1-2.4,4.61-3.68A37.79,37.79,0,0,1,247,176.59a17.45,17.45,0,0,1-1.87-.25c-.45-.09-.91-.19-1.37-.32l-.4-.12v-.18l.61,0,1.65-.1c.33,0,.67-.06,1-.11s.85-.12,1.28-.2a25.84,25.84,0,0,0,10.25-4.51,34.09,34.09,0,0,0,6.7-6.33,47.94,47.94,0,0,0,5.29-8.07c.51-1,1-2,1.49-3A30.89,30.89,0,0,1,257,160.17l-.59.08.71-.32A34.31,34.31,0,0,0,272.87,146a41.76,41.76,0,0,0,4.6-11.79,24.82,24.82,0,0,1-4,3.88,9.09,9.09,0,0,1-3.18,1.47l-.15-.17c.47-.49,1-1,1.44-1.47a25.42,25.42,0,0,0,2-2.3,28.68,28.68,0,0,0,2.88-4.68,21.36,21.36,0,0,0,2.18-12.32c-.22-1.8-.69-3.56-1-5.35a46.34,46.34,0,0,1-.28-14.5c-.46.35-.89.73-1.34,1.07a5.48,5.48,0,0,1-3.6,1.5l-.3,0c.11-.12.23-.23.35-.34.53-.53,1.09-1,1.58-1.59a17.52,17.52,0,0,0,2.4-3.38h0A12.94,12.94,0,0,0,278,90.13a15.27,15.27,0,0,1,.9-3.61c.1-.34.28-.65.47-1.11l-2.29,2.11h0l-.1.09-.17-.1c.11-.26.21-.53.31-.79h0c.2-.53.4-1.07.65-1.58,1.36-2.77,2.73-5.54,4.14-8.28a23.45,23.45,0,0,1,5.34-7,20.62,20.62,0,0,1,1.83-1.31C287.44,68.85,286,69.09,284.51,69.43ZM267.29,98.07c0,.51-.07,1-.11,1.51,0,.06,0,.12,0,.18l-.12,1.47-.12,1.18c-.05.39-.09.78-.14,1.17l-.12,1c0,.34-.09.69-.14,1-.08.63-.17,1.25-.27,1.88-.07.45-.14.9-.22,1.34l0,.24,0,.18-.06.35-.12.65-.09.51a1.42,1.42,0,0,1,0,.2c-.07.39-.14.77-.22,1.15v.05c-.09.45-.18.91-.28,1.36,0,.08,0,.15,0,.22l0,.08-.07.3q-.36,1.69-.78,3.39c-.06.27-.13.54-.2.82s-.2.79-.31,1.19l-.16.61c-.11.42-.22.84-.34,1.26s-.29,1-.44,1.52c0,.19-.11.38-.16.57-.44,1.5-.91,3-1.4,4.46a1.21,1.21,0,0,1-.05.14c-.08.25-.17.51-.26.77s-.27.8-.42,1.2c0,.13-.09.25-.14.38-.1.29-.21.58-.32.88-.2.55-.41,1.11-.63,1.66-.14.37-.29.73-.43,1.1l-.23.54c-.23.57-.47,1.13-.71,1.7l-.45,1c-.24.54-.48,1.08-.73,1.61-.09.18-.18.36-.26.54l-.16.33-.36.73c-.51,1-1,2.06-1.54,3.08-.13.27-.26.53-.4.8s-.26.49-.38.74-.35.68-.54,1c0,.09-.09.17-.13.26l-.14.25-.27.5h0l-.27.47,0,.08-.25.43-.16.29,0,.08h0s-.05.1-.08.14c-.42.72-.84,1.43-1.27,2.13l-.43.71h0l-.44.7c-.09.15-.18.29-.28.43l-.41.65c-.82,1.25-1.67,2.49-2.57,3.7l-.28.38-.07.09-.15.19q-.3.41-.63.81l-.33.43-.58.7c-2,2.36-3.92,4.74-6,7l-.11.12-.75.8-.85.88-.68.69-.39.38c-.13.13-.27.26-.39.39l-.64.6L234,171l-.72.66-.74.66-.77.66-.45.38-.07.06-.64.52c-.22.19-.45.37-.68.55l-.56.43-1.11.84-.43.32c-.4.28-.79.57-1.19.84-1.13.81-2.26,1.6-3.41,2.37-.47.33-.95.65-1.43,1l-.1.07-.87.56-.94.6-1,.64c-.15.11-.32.2-.48.31l-.83.5q-.44.27-.87.51c-.72.42-1.45.82-2.2,1.2l-.65.33c-.73.37-1.47.73-2.22,1.07l-1,.45-1,.45-1.34.56-.67.28-.37.14c-2.35.94-4.72,1.81-7.08,2.71l-1.36.51-.19.06a1,1,0,0,1-.23,0l-.13,0h0c-.12-.08-.17-.25-.15-.5,0,0,0-.05,0-.07a1,1,0,0,1,.11-.35.38.38,0,0,1,.06-.13,1.13,1.13,0,0,1,.12-.21l.07-.11.06-.08,0,0,.05-.06a.18.18,0,0,0,.05-.07l.06-.05.11-.11h0l.11-.1.12-.1.09-.06.17-.1.11-.05.06,0,.06,0,1.48-.41,1-.28.52-.16.37-.12.37-.11.55-.18.18-.06.27-.1c.15,0,.31-.1.45-.16l.24-.08.49-.18,1.17-.46.47-.19.46-.2.23-.09.69-.29.56-.25.24-.1.31-.14.34-.15.54-.25h0l.2-.09h0l.06,0,.35-.17h0l.89-.43.43-.21.2-.1.62-.31.8-.41c.81-.42,1.6-.86,2.39-1.3l.57-.34.08,0a1,1,0,0,0,.17-.1h0l.1-.06.14-.08.77-.46.13-.08.65-.4.65-.4c.11-.08.23-.15.35-.22l.13-.08.09-.06,0,0h0l.26-.17,1.12-.74.54-.38c.11-.06.21-.14.31-.2l.41-.29.71-.5.57-.41.57-.42.23-.16c.58-.43,1.15-.87,1.72-1.32l.14-.11.44-.35.54-.43c.52-.41,1-.83,1.52-1.26l.53-.45.19-.16.22-.2,0,0c.15-.12.3-.26.45-.39l.12-.1,1.32-1.2.48-.44.48-.45.63-.6.62-.61c.5-.48,1-1,1.48-1.48l.87-.9c.29-.3.58-.61.86-.92s.79-.85,1.17-1.29l.7-.78c.55-.63,1.1-1.27,1.63-1.92l.25-.3.51-.63c.2-.24.39-.48.58-.73l.57-.73.12-.14,0-.05c.06-.08.12-.15.17-.23l.07-.09.16-.21.51-.67c.21-.27.41-.55.61-.83.55-.75,1.09-1.51,1.62-2.27.18-.26.35-.52.53-.77s.37-.54.55-.82l.54-.83c.06-.11.13-.21.2-.33s.22-.33.32-.51.35-.56.52-.84l.7-1.16.23-.38.09-.16,1-1.72c.44-.78.88-1.57,1.31-2.36h0c.23-.41.45-.82.67-1.24l.29-.56c.61-1.16,1.2-2.33,1.76-3.52,1.36-2.87,2.68-5.79,3.78-8.78l.52-1.47.6-1.69c.06-.17.11-.34.17-.51s.15-.45.23-.67c.34-1,.67-2,1-3,.16-.49.31-1,.47-1.49s.31-1,.45-1.49.31-1,.46-1.49l.33-1.14.12-.42c.07-.24.14-.48.2-.72s.19-.66.27-1c.29-1.07.55-2.15.81-3.23,0-.13.05-.25.08-.37a2.68,2.68,0,0,0,.07-.27c0-.22.1-.45.15-.66l.18-.81c0-.15.07-.3.1-.45s0-.06,0-.09c.09-.39.17-.79.25-1.18s.16-.78.23-1.17.16-.77.23-1.16.17-.9.25-1.34c.27-1.5.52-3,.75-4.5l.09-.55.09-.55L267,98V98l.09-.49v-.06h.18C267.29,97.65,267.3,97.86,267.29,98.07Z"/><circle class="cls-3" cx="197.22" cy="61.54" r="6.47"/></svg>